<?xml version="1.0" encoding="utf-8"?>
<!-- Generator: Adobe Illustrator 26.0.3, SVG Export Plug-In . SVG Version: 6.00 Build 0)  -->
<svg version="1.1" id="Layer_1" xmlns="http://www.w3.org/2000/svg" xmlns:xlink="http://www.w3.org/1999/xlink" x="0px" y="0px"
	 viewBox="0 0 1133.86 1133.86" style="enable-background:new 0 0 1133.86 1133.86;" xml:space="preserve">
<style type="text/css">
	.st0{fill:#185670;}
</style>
<g>
	<path class="st0" d="M820.25,457.59c-36.32,0-72.64,0.02-108.96-0.03c-3.69,0-7.41-0.17-11.06-0.7c-6.28-0.91-8.69-3.58-9.35-9.84
		c-0.26-2.53-0.44-5.07-0.44-7.61c-0.04-67.08-0.05-134.15-0.06-201.23c0-7.63-0.06-15.27,0.08-22.9c0.05-3.14,0.37-6.31,0.87-9.41
		c0.62-3.86,2.97-6.36,6.84-7.24c1.42-0.32,2.87-0.66,4.31-0.73c4-0.21,8.01-0.39,12.02-0.39c71.33-0.02,142.66-0.03,213.99,0.02
		c4.23,0,8.48,0.27,12.67,0.82c5.35,0.7,7.84,3.39,8.62,8.73c0.28,1.9,0.38,3.83,0.51,5.75c0.08,1.15,0.06,2.31,0.06,3.47
		c0.03,58.75,0.06,117.5,0.07,176.25c0,16.58-0.04,33.15-0.17,49.73c-0.02,2.59-0.43,5.22-0.97,7.77c-0.72,3.38-2.94,5.53-6.32,6.35
		c-1.56,0.38-3.16,0.75-4.76,0.84c-3.85,0.22-7.7,0.36-11.56,0.37C891.19,457.6,855.72,457.59,820.25,457.59z M714.39,222.29
		c0,70.32,0,140.36,0,210.52c70.62,0,141.07,0,211.49,0c0.54-2.12,0.53-208.53,0.02-210.46c-2.46-0.47-62.24-0.36-64.13,0.18
		c0,0.93,0,1.91,0,2.9c-0.01,20.05,0.03,40.1-0.08,60.14c-0.02,3.52-0.5,7.07-1.11,10.54c-0.64,3.62-3.11,5.82-6.67,6.54
		c-2.56,0.51-5.18,0.92-7.78,0.94c-15.5,0.1-31,0.1-46.5,0.06c-3.39-0.01-6.78-0.18-10.15-0.5c-6.25-0.6-9.14-3.46-9.79-9.65
		c-0.3-2.91-0.47-5.84-0.48-8.76c-0.04-19.82-0.02-39.63-0.03-59.45c0-0.97-0.06-1.94-0.1-3C757.41,222.29,736,222.29,714.39,222.29
		z M803.74,221.83c0,19.2,0,38.11,0,57.37c11.27,0.01,22.39,0.04,33.44-0.03c0.55-2.64,0.46-55.54-0.05-57.34
		C826.09,221.83,815.02,221.83,803.74,221.83z"/>
	<path class="st0" d="M347.84,859.78c0,7.93,0,15.54,0,23.41c0.91,0.07,1.79,0.21,2.68,0.21c7.4,0.02,14.81,0.01,22.21,0.01
		c0.91,0,1.83,0,2.67,0c0.52,2.01,0.58,20.06,0.11,22.48c-26.77,0-53.57,0-80.37,0c-0.49-1.75-0.54-19.45-0.01-21.8
		c9.01,0,18.08,0,27.07,0c0.67-1.99,0.73-21.91,0.08-24.32c-0.92,0-1.9,0-2.89,0c-24.6-0.01-49.2,0.01-73.8-0.04
		c-5.16-0.01-10.31-0.39-15.34-1.74c-5.98-1.6-9.81-5.37-11.34-11.31c-0.71-2.75-1.18-5.59-1.42-8.41
		c-0.33-3.84-0.44-7.7-0.45-11.55c-0.03-34.31-0.02-68.62-0.02-102.93c0-8.4-0.04-16.81,0.06-25.21c0.05-4.15,0.15-8.32,1.1-12.41
		c1.98-8.47,6.75-13.11,15.33-14.5c3.33-0.54,6.74-0.88,10.11-0.88c61.08-0.05,122.15-0.05,183.23,0c3.37,0,6.78,0.32,10.11,0.85
		c9.24,1.47,14.35,6.65,15.72,15.94c0.53,3.57,0.82,7.21,0.83,10.82c0.06,35,0.06,70.01,0.02,105.01
		c-0.01,11.18-0.12,22.35-0.33,33.53c-0.05,2.75-0.48,5.53-1.07,8.23c-1.58,7.17-6.05,11.58-13.22,13.25
		c-4.07,0.94-8.21,1.34-12.38,1.34c-25.14,0.02-50.28,0.02-75.42,0.03C350.13,859.78,349.14,859.78,347.84,859.78z M241.76,835.2
		c1.29,0,2.43,0,3.57,0c26.06,0,52.13,0,78.19,0c34.08,0,68.16,0,102.25-0.01c1.12,0,2.24-0.13,3.36-0.2c0-46.8,0-93.32,0-140.18
		c-1.3,0-2.43,0-3.57,0c-45.96,0-91.91,0-137.87,0c-14.27,0-28.53,0-42.8,0.01c-1.04,0-2.07,0.13-3.13,0.2
		C241.76,741.83,241.76,788.36,241.76,835.2z"/>
	<path class="st0" d="M291.83,621.08c-6.59,1.29-12.91,2.52-19.39,3.79c-0.49-1.89-0.95-3.5-1.33-5.14
		c-3.15-13.37-5.18-26.91-6.17-40.62c-0.87-12.02-0.96-24.04-0.19-36.05c2.3-36.03,10.89-70.55,25.26-103.65
		c16.5-37.98,39.31-71.72,68.63-100.95c41.45-41.33,90.64-69.15,147.32-83.76c13.66-3.52,27.49-6.14,41.49-7.9
		c11.94-1.51,23.91-2.52,35.94-2.76c1.18-0.02,2.36-0.15,3.54-0.23c0.05-0.18,0.09-0.35,0.14-0.53
		c-7.05-5.33-14.09-10.65-21.33-16.12c4.39-6.27,8.7-12.42,13.06-18.65c0.49,0.27,0.83,0.42,1.13,0.63
		c18.37,12.88,36.75,25.74,55.08,38.68c2.06,1.45,4.01,3.17,5.64,5.08c3.27,3.83,3.25,7.99,0.27,12.07
		c-1.89,2.59-4.36,4.57-6.95,6.4c-11.27,7.97-22.53,15.94-33.82,23.88c-6.31,4.44-12.65,8.81-18.99,13.21
		c-0.63,0.43-1.27,0.84-2.17,1.43c-4.49-6.14-8.92-12.21-13.54-18.54c9.12-6.68,18.14-13.3,27.17-19.92
		c-0.04-0.16-0.09-0.32-0.13-0.47c-1.02-0.16-2.03-0.4-3.05-0.47c-8.77-0.64-17.54-1.28-26.34-0.77c-6,0.35-12.02,0.57-17.99,1.17
		c-9.66,0.96-19.23,2.58-28.7,4.77c-50,11.61-93.55,35.45-131.46,69.77c-32.3,29.23-57.21,63.85-74.47,103.89
		c-9.03,20.96-15.4,42.71-19.32,65.2c-3.7,21.28-4.85,42.72-3.96,64.26c0.55,13.33,2.02,26.58,4.34,39.73
		C291.69,619.25,291.72,620.01,291.83,621.08z"/>
	<path class="st0" d="M619.38,930.28c0-1.12,0-1.95,0-2.79c0-20.97,0.02-41.95-0.01-62.92c-0.01-7.32,0.03-14.65-0.27-21.96
		c-0.13-3.28-0.69-6.62-1.63-9.76c-3.22-10.75-10.71-16.94-21.54-19.32c-4.64-1.02-9.34-0.98-14.04-0.98
		c-16.19,0.01-32.39-0.01-48.58,0.05c-3.94,0.01-7.82,0.69-11.63,1.71c-10.46,2.78-16.81,9.53-19.35,19.96
		c-1.1,4.52-1.49,9.11-1.49,13.76c0,26.14-0.02,52.28-0.03,78.42c0,0.99,0,1.97,0,2.88c-1.87,0.63-17.91,0.8-21.44,0.27
		c-0.04-0.82-0.12-1.71-0.13-2.6c-0.19-10.64-0.43-21.27-0.52-31.91c-0.13-13.95-0.35-27.91-0.12-41.86
		c0.14-8.46,0.85-16.93,1.67-25.37c0.92-9.42,5.13-17.35,12.06-23.8c6.45-6,14.14-9.82,22.43-12.52c3.36-1.1,6.82-1.89,10.23-2.84
		c0.35-0.1,0.69-0.25,1.3-0.48c-0.46-0.85-0.83-1.57-1.24-2.27c-4.15-6.98-7.68-14.24-9.83-22.11c-3.35-12.28-2.79-24.13,4.24-35.14
		c4.74-7.43,11.05-13.25,18.87-17.32c19.1-9.93,41.92-5.78,56.9,10.22c6.42,6.85,10.5,14.79,11.45,24.2
		c0.69,6.78-0.35,13.37-2.32,19.84c-2.12,6.97-5.27,13.47-8.97,19.73c-0.46,0.78-0.89,1.59-1.44,2.57c0.89,0.32,1.59,0.59,2.29,0.83
		c6.57,2.22,13.08,4.61,19.23,7.86c1.43,0.76,2.83,1.57,4.22,2.4c10.9,6.54,17.65,16.08,20.49,28.43
		c1.37,5.95,2.19,11.98,2.33,18.08c0.2,8.86,0.3,17.73,0.32,26.59c0.05,18.35,0.01,36.71,0.01,55.06c0,0.98,0,1.96,0,3.1
		C634.93,930.28,627.34,930.28,619.38,930.28z M560.25,729.76c-12.96-0.03-23.79,10.7-23.81,23.58
		c-0.02,12.85,10.84,23.76,23.66,23.79c12.01,0.03,23.57-9.75,23.71-23.73C583.94,740.66,572.97,729.79,560.25,729.76z"/>
	<path class="st0" d="M774.46,845.13c-0.52,7.6-1.01,14.94-1.52,22.39c-1.72,0-3.24,0.08-4.75-0.01c-6.69-0.4-13.39-0.83-20.08-1.28
		c-8.08-0.54-16.15-1.09-24.22-1.69c-6.38-0.47-12.76-0.99-19.13-1.55c-2.22-0.2-4.47-0.39-6.63-0.91
		c-5.49-1.34-8.48-5.98-7.47-11.52c0.34-1.88,0.92-3.75,1.69-5.5c9.1-20.74,18.26-41.46,27.4-62.18c0.24-0.55,0.56-1.08,0.99-1.87
		c6.93,3.1,13.79,6.17,20.86,9.33c-3.85,9.13-7.64,18.12-11.56,27.41c0.82-0.1,1.32-0.11,1.79-0.24c5.23-1.45,10.09-3.77,14.8-6.42
		c10.13-5.7,19.33-12.7,27.96-20.44c29.98-26.87,54.74-57.88,73.44-93.57c10.74-20.49,18.33-42.22,23.73-64.72
		c2.95-12.3,5.09-24.75,6.35-37.33c1.47-14.59,1.9-29.21,1.23-43.88c-0.66-14.42-2.26-28.72-4.71-42.94
		c-0.03-0.15,0.02-0.3,0.06-0.78c7.21-1.37,14.51-2.75,22.09-4.19c0.38,1.79,0.79,3.47,1.09,5.17c1.98,11.16,3.47,22.37,4.37,33.68
		c1,12.47,1.2,24.96,0.66,37.44c-1.16,26.54-5.76,52.5-13.74,77.84c-12.05,38.32-29.99,73.56-55.1,105.03
		c-19.22,24.11-41.66,44.8-66.82,62.56c-7.3,5.15-14.89,9.89-22.35,14.82c-0.68,0.45-1.37,0.88-2.05,1.31
		c0.04,0.18,0.08,0.36,0.12,0.55C753.39,842.81,763.81,843.96,774.46,845.13z"/>
	<path class="st0" d="M502.06,587.7c0-7.69,0-15.14,0-22.84c23.16,0,46.26,0,69.61,0c0.06-1.06,0.16-1.88,0.16-2.69
		c0.01-4.55,0.01-9.1,0.01-13.65c0-40.79,0-81.58,0-122.37c0-1.06,0-2.12,0-3.32c7.93,0,15.59,0,23.45,0
		c0.05,0.93,0.12,1.75,0.12,2.58c0.01,48.12,0.01,96.23-0.01,144.35c0,2.54-0.16,5.09-0.45,7.6c-0.92,7.74-4.93,9.19-10.45,9.85
		c-3.05,0.37-6.15,0.47-9.23,0.48c-23.6,0.04-47.2,0.02-70.8,0.02C503.76,587.7,503.07,587.7,502.06,587.7z"/>
	<path class="st0" d="M281.46,780.19c5.61-5.18,11.04-10.19,16.65-15.37c5.27,4.9,10.45,9.71,15.85,14.73
		c19.31-20.21,38.52-40.3,57.99-60.68c4.8,7.82,9.39,15.5,14.02,23.16c-0.38,0.46-0.61,0.76-0.87,1.03
		c-20.1,20.02-40.06,40.19-60.65,59.72c-3.62,3.43-7.54,4.12-12.06,3.63c-3.31-0.36-6.27-1.55-8.72-3.86
		c-3.75-3.55-7.57-7.02-11.21-10.68C288.78,788.16,285.28,784.26,281.46,780.19z"/>
</g>
</svg>
