<?xml version="1.0" encoding="utf-8"?>
<!-- Generator: Adobe Illustrator 26.0.3, SVG Export Plug-In . SVG Version: 6.00 Build 0)  -->
<svg version="1.1" id="Layer_1" xmlns="http://www.w3.org/2000/svg" xmlns:xlink="http://www.w3.org/1999/xlink" x="0px" y="0px"
	 viewBox="0 0 1133.86 1133.86" style="enable-background:new 0 0 1133.86 1133.86;" xml:space="preserve">
<style type="text/css">
	.st0{fill:#185670;}
</style>
<g>
	<path class="st0" d="M746.96,698.75c-0.13-3.08-0.23-5.79-0.36-8.51c-0.65-12.88-0.44-25.72,1.92-38.45
		c2.69-14.5,8.3-27.6,18.52-38.48c5.61-5.98,12.17-10.73,19.23-14.81c13.07-7.56,27.07-12.56,41.97-14.89
		c13.12-2.06,26.07-1.33,38.65,3.25c16.3,5.94,28.55,16.58,36.75,31.86c5.32,9.93,9.04,20.5,12,31.32
		c3.31,12.12,6.35,24.31,9.53,36.47c0.85,3.26,1.77,6.51,2.68,9.76c0.21,0.75,0.5,1.48,0.82,2.43c0.8,0,1.57,0,2.34,0
		c8.7,0,17.4-0.07,26.09,0.02c6.26,0.07,12.48,0.62,18.5,2.53c14.18,4.51,22.62,14.12,25.51,28.68c0.79,3.97,0.93,7.99,0.94,12.01
		c0.12,34.29,0.25,68.57,0.35,102.86c0.02,9.13-0.06,18.26-0.14,27.39c-0.05,5.75-0.13,11.5-0.31,17.24
		c-0.16,5.35-1.14,10.57-3.17,15.54c-4.67,11.45-13.33,18.23-25.13,21.28c-4.69,1.21-9.5,1.59-14.31,1.61
		c-21.85,0.09-43.71,0.13-65.56,0.15c-31.63,0.03-63.26,0.05-94.89,0.04c-26.17-0.01-52.33-0.06-78.5-0.13
		c-6.11-0.02-12.23,0.02-18.32-0.41c-9.81-0.68-18.66-3.91-25.68-11.15c-5.11-5.27-7.98-11.69-9.46-18.8
		c-1.08-5.17-1.16-10.41-1.19-15.66c-0.08-11.64-0.15-23.29-0.18-34.93c-0.05-17.97-0.1-35.94-0.06-53.91
		c0.04-17.32,0.15-34.65,0.3-51.97c0.04-4.89,0.4-9.77,1.74-14.51c3.76-13.38,12.47-21.82,25.71-25.72
		c5.71-1.68,11.59-2.1,17.48-2.14c11.14-0.08,22.28,0.01,33.42,0.03C744.99,698.75,745.84,698.75,746.96,698.75z M833.98,898.18
		c0-0.04,0-0.08,0-0.12c9.42,0,18.83,0.01,28.25,0c15.6-0.01,31.2-0.1,46.8-0.04c13.8,0.05,27.6,0.3,41.4,0.39
		c2.79,0.02,5.61-0.1,8.37-0.49c7.31-1.03,11.72-5.13,13.11-12.33c0.58-3.01,0.75-6.13,0.81-9.21c0.08-3.8-0.2-7.61-0.23-11.42
		c-0.12-13.73-0.26-27.46-0.28-41.19c-0.02-15.31,0.06-30.63,0.14-45.94c0.03-6.4,0.24-12.79,0.25-19.19
		c0.01-5.1,0.11-10.21-0.3-15.29c-0.65-8.08-4.91-12.7-12.85-14.3c-2.59-0.52-5.27-0.77-7.91-0.76c-22.5,0.08-45,0.3-67.5,0.36
		c-27.39,0.07-54.78,0.06-82.18,0.02c-15.6-0.02-31.2-0.14-46.8-0.22c-13.16-0.07-26.31-0.13-39.47-0.2
		c-3.25-0.02-6.46,0.36-9.57,1.32c-4.89,1.51-8.12,4.7-9.6,9.64c-0.94,3.13-1.28,6.33-1.24,9.58c0.11,7.83,0.29,15.67,0.34,23.5
		c0.22,33,0.32,65.99-0.28,98.99c-0.08,4.37-0.05,8.79,0.47,13.12c0.88,7.41,4.91,11.55,12.16,13.27c3.04,0.72,6.12,0.79,9.21,0.75
		c10.71-0.14,21.42-0.39,32.13-0.4c19.27-0.02,38.53,0.1,57.8,0.15C816.01,898.2,825,898.18,833.98,898.18z M889.1,696.86
		c0.15-1,0.33-1.9,0.41-2.82c0.23-2.5,0.45-5.01,0.61-7.52c0.64-9.56,0.77-19.1-1.02-28.57c-2.47-13.07-8.63-23.96-19.09-32.31
		c-5.32-4.24-11.13-7.63-17.48-10.07c-8.49-3.26-17.21-4.36-26.23-2.97c-8.24,1.27-15.69,4.48-22.68,8.91
		c-14.7,9.31-23.08,22.66-25.48,39.84c-1.42,10.18-0.87,20.36,0.15,30.54c0.16,1.63,0.39,3.26,0.59,4.98
		C815.69,696.86,852.33,696.86,889.1,696.86z"/>
	<path class="st0" d="M266.7,554.66c0-20.42-0.19-40.84,0.07-61.25c0.15-11.63,0.78-23.28,1.68-34.88
		c1.63-20.96,5.07-41.64,11.52-61.71c13.98-43.5,36.67-81.83,68.64-114.51c38.91-39.77,85.63-66,139.49-79.62
		c11.07-2.8,22.29-4.84,33.63-6.27c14.28-1.8,28.61-2.77,43-2.38c70.76,1.9,132.75,26.27,186.02,72.87
		c2.27,1.99,4.56,3.96,6.93,5.83c3,2.37,5.02,5.16,5.49,9.13c0.39,3.29,0.81,6.55,0.68,9.87c-0.01,0.36-0.03,0.72-0.07,1.08
		c-0.52,4.57-2.66,6.84-7.22,7.47c-1.84,0.26-3.72,0.43-5.58,0.38c-2.65-0.07-5.3-0.4-7.95-0.6c-1.52-0.11-2.73-0.81-3.8-1.82
		c-0.26-0.25-0.55-0.47-0.78-0.74c-4.2-4.99-9.38-8.9-14.43-12.92c-19.7-15.68-40.78-29.14-63.73-39.6
		c-19.37-8.83-39.51-15.17-60.5-18.75c-16.21-2.77-32.55-3.72-48.97-2.97c-27.85,1.28-54.72,7.32-80.78,17.1
		c-26.44,9.92-51.3,22.81-73.98,39.73c-41.62,31.05-69.95,71.51-85.57,120.96c-4.81,15.24-8.23,30.79-10.47,46.61
		c-1.52,10.75-2.67,21.54-3.02,32.39c-0.37,11.49-0.7,22.99-0.88,34.49c-0.19,12.15-0.26,24.3-0.21,36.44
		c0.09,22.64,0.31,45.29,0.48,67.93c0.04,4.97-0.37,9.91-1.11,14.82c-1.02,6.81-8.12,12.31-15.33,11.89
		c-4.88-0.29-8.62-2.48-11.13-6.7c-0.85-1.44-1.39-2.98-1.43-4.69c-0.27-9.77-0.74-19.54-0.82-29.31
		c-0.14-16.75-0.04-33.5-0.04-50.25C266.57,554.66,266.63,554.66,266.7,554.66z"/>
	<path class="st0" d="M327.92,580.38c0-7.33-0.18-14.67,0.04-22c0.37-12.57,0.98-25.13,1.52-37.7c0.29-6.89,0.59-13.79,0.96-20.68
		c0.65-11.98,1.34-23.96,2.07-35.94c0.42-6.81,0.84-13.63,1.45-20.43c0.77-8.65,1.1-17.36,2.94-25.89
		c2.32-10.72,6.71-20.61,12.34-29.95c2.29-3.8,6.16-5.33,10.39-5.71c8.05-0.73,15.2,4.92,16.59,12.86c0.28,1.63,0.04,3.12-0.62,4.61
		c-5.62,12.73-9.63,25.98-12.33,39.62c-1.72,8.67-2.87,17.43-3.69,26.23c-1.6,17.14-1.32,34.32-1.26,51.5
		c0.09,26.38,0.01,52.77,0.03,79.15c0.01,10.64,0.01,21.28,0.17,31.92c0.12,8.12,0.19,16.25,0.78,24.35
		c1.69,23.35,7.27,45.78,16.96,67.12c24.76,54.53,71.66,94.28,129.47,109.76c9.37,2.51,18.87,4.42,28.53,5.37
		c5.43,0.53,10.88,0.82,16.32,1.32c3.43,0.32,6.89,0.59,10.24,1.3c7.69,1.64,11.37,6.38,11.33,14.25c-0.01,1.57-0.17,3.17-0.47,4.71
		c-1.13,5.76-4.83,9.02-10.45,10.06c-2.67,0.49-5.43,0.68-8.14,0.67c-7.55-0.01-15.07-0.51-22.58-1.36
		c-15.25-1.72-30.16-4.98-44.7-9.88c-42.29-14.27-77.48-38.86-105.8-73.26c-21.47-26.06-36.5-55.48-45.02-88.17
		c-3.2-12.26-5.32-24.7-6.33-37.34c-0.98-12.19-1.14-24.41-1.19-36.63c-0.04-10.14,0.06-20.27,0.09-30.41c0.01-3.16,0-6.32,0-9.48
		C327.68,580.38,327.8,580.38,327.92,580.38z"/>
	<path class="st0" d="M564.36,252.3c5.27,0.4,10.72,0.68,16.15,1.25c8.78,0.93,17.5,2.35,26.11,4.34
		c42.45,9.8,79.46,29.74,110.75,60.04c32.2,31.18,53.63,68.63,63.99,112.3c2.51,10.57,4.22,21.28,4.98,32.12
		c0.32,4.59,0.59,9.18,0.75,13.77c0.14,3.81-0.18,7.6-1.18,11.32c-0.89,3.33-2.79,5.77-5.85,7.33c-2.44,1.25-4.91,2.36-7.66,2.74
		c-1.38,0.19-2.46-0.13-3.47-1.19c-3.25-3.38-6.3-6.9-8.53-11.06c-1.48-2.76-2.24-5.69-2.48-8.84
		c-2.94-39.32-13.83-76.03-37.27-108.19c-28.85-39.6-66.84-66.29-114.4-78.93c-9.52-2.53-19.22-4.09-29.03-5.05
		c-8.97-0.88-17.95-1.09-26.92-0.65c-20.89,1.02-41.09,5.39-60.58,13.02c-13.7,5.36-26.61,12.21-38.88,20.32
		c-3.23,2.14-6.63,4.01-9.99,5.94c-2.11,1.21-4.45,1.63-6.86,1.45c-2.14-0.15-4.33-0.21-6.41-0.71c-6.6-1.57-11.29-7.18-11.51-13.91
		c-0.13-3.93,1.04-7.42,4.33-10.09c20.71-16.78,43.97-28.66,69.46-36.28c11.64-3.48,23.49-6.07,35.53-7.64
		c7.12-0.93,14.28-1.54,21.41-2.31c3.35-0.36,6.7-0.85,10.06-1.09C559.28,252.16,561.73,252.3,564.36,252.3z"/>
	<path class="st0" d="M388.82,593.88c0-12.87-0.04-25.73,0.01-38.6c0.05-11.71,0.22-23.41,0.3-35.12c0.06-8.7-0.09-17.4,0.11-26.09
		c0.29-12.64,0.84-25.29,2.57-37.83c3.14-22.75,10.89-43.88,23.37-63.15c23.63-36.49,56.44-60.71,98.29-72.56
		c9.34-2.65,18.88-4.39,28.58-4.99c5.15-0.32,10.33-0.43,15.49-0.34c2.17,0.04,4.41,0.64,6.49,1.37c3.83,1.36,6.31,4.16,7.41,8.09
		c0.87,3.08,1.12,6.2,0.5,9.38c-0.72,3.72-2.81,6.39-6.12,8.13c-2.84,1.49-5.91,2.19-9.06,2.59c-5.84,0.74-11.72,1.24-17.52,2.19
		c-27.04,4.42-51.64,14.42-72.65,32.37c-19.84,16.96-33,38.26-40.52,63.15c-3.25,10.76-5.18,21.77-6.17,32.97
		c-0.89,10.12-0.69,20.25-0.71,30.38c-0.05,32.2-0.02,64.41-0.02,96.61c0,9.63,0.07,19.26,0,28.9c-0.02,2.93-0.18,5.91-0.73,8.78
		c-1.38,7.11-4.87,10.26-11.99,11.22c-2.52,0.34-5.03,0.15-7.48-0.49c-3.71-0.98-6.33-3.27-7.87-6.78
		c-1.29-2.93-1.89-6.04-1.96-9.22c-0.16-7.9-0.24-15.81-0.3-23.71C388.78,605.38,388.82,599.63,388.82,593.88z"/>
	<path class="st0" d="M550.29,928.31c-4.15-0.34-9.97-0.64-15.74-1.34c-7.77-0.94-15.53-1.98-23.23-3.32
		c-50.74-8.8-97.02-27.76-137.22-60.49c-24.41-19.88-44.78-43.36-61.72-69.83c-5.11-7.98-9.74-16.27-14.48-24.48
		c-1.83-3.17-3.36-6.51-4.18-10.13c-1.41-6.25,0.41-10.97,5.68-14.59c2.14-1.47,4.42-2.65,6.97-3.29c3.67-0.92,7.06-0.34,9.9,2.14
		c1.71,1.5,3.27,3.25,4.56,5.13c1.75,2.53,3.25,5.25,4.74,7.95c11.68,21.16,25.33,40.93,41.68,58.78
		c31.33,34.22,69.3,57.79,113.72,71.04c13.64,4.07,27.51,7.08,41.59,9.13c9.53,1.39,19.09,2.43,28.7,2.97
		c7.45,0.42,12.27,4.71,15.65,10.93c1.33,2.44,1.26,5.12,0.43,7.76c-1.08,3.45-2.98,6.35-5.75,8.68
		C558.79,927.72,555.51,928.49,550.29,928.31z"/>
	<path class="st0" d="M664.85,594.01c-0.09,10.06-0.02,20.12-0.29,30.17c-0.41,14.96-1.75,29.85-5.38,44.41
		c-6.11,24.55-20.15,43.58-41.05,57.59c-13.26,8.89-27.87,14.42-43.66,16.81c-22.09,3.35-43.22,0.23-63.31-9.56
		c-2.5-1.22-4.93-2.69-7.13-4.39c-4.61-3.54-5.93-8.29-4.35-13.84c0.73-2.57,1.84-4.99,3.49-7.12c2.75-3.55,6.45-4.87,10.83-4.5
		c3.61,0.3,7.04,1.38,10.4,2.64c6.12,2.29,12.33,4.27,18.77,5.52c36.99,7.2,72.81-11.36,86.17-48.61c3.55-9.9,5.21-20.15,5.25-30.65
		c0.04-13.15,0-26.31-0.06-39.46c-0.03-5.6-0.35-11.21-0.27-16.81c0.07-4.52,0.51-9.03,0.86-13.54c0.29-3.65,2.14-6.5,4.89-8.8
		c6.64-5.53,16.91-4.61,22.49,2c1.05,1.24,1.71,2.58,1.73,4.28c0.12,11.28,0.29,22.57,0.44,33.85
		C664.73,594.01,664.79,594.01,664.85,594.01z"/>
	<path class="st0" d="M695.38,508.73c0.14-8.62,0.54-17.25,0.36-25.86c-0.49-23.49-5.63-45.83-17.16-66.49
		c-9.31-16.68-21.85-30.57-36.76-42.4c-2.36-1.87-4.8-3.69-6.94-5.8c-1.77-1.74-3.39-3.74-4.69-5.86
		c-2.26-3.69-2.28-7.63-0.43-11.54c1.21-2.57,2.92-4.78,5.02-6.68c3.44-3.11,7.42-3.88,11.84-2.69c3.68,0.99,6.82,3.01,9.83,5.24
		c6.42,4.75,12.47,9.96,18.21,15.5c14.94,14.42,27.08,30.85,35.86,49.72c6.83,14.69,11.26,30.08,13.7,46.09
		c1.87,12.26,2.3,24.59,2.1,36.97c-0.09,5.6-0.29,11.21-0.22,16.81c0.1,7.25,0.48,14.5,0.63,21.75c0.14,6.97,0.09,13.94-0.87,20.87
		c-0.94,6.75-4.43,11.45-10.99,13.54c-4.84,1.55-9.41,0.67-13.44-2.42c-3.16-2.44-4.86-5.67-5.16-9.77
		C695.14,540.05,695.13,524.39,695.38,508.73z"/>
	<path class="st0" d="M450.64,563.36c0-8.77,0.07-17.54-0.02-26.3c-0.11-10.42-0.53-20.83-0.5-31.25
		c0.03-9.84,0.34-19.69,1.62-29.47c1.18-9.08,3.48-17.9,6.6-26.49c2.42-6.68,5.2-13.23,7.74-19.87c1.71-4.5,5.23-6.68,9.61-7.79
		c3.37-0.86,6.69-0.45,9.97,0.6c2.14,0.69,3.83,1.97,5.06,3.82c2.37,3.56,3.26,7.48,2.62,11.7c-0.14,0.9-0.53,1.8-0.98,2.59
		c-5.63,9.88-8.8,20.54-10.31,31.76c-1.36,10.08-1.32,20.21-1.21,30.34c0.09,8.05,0.3,16.09,0.29,24.14
		c-0.04,25.87-0.16,51.74-0.24,77.62c-0.03,8.62,0.08,17.25-0.05,25.87c-0.05,3.29-0.28,6.62-0.9,9.84
		c-1.29,6.6-4.81,9.75-11.44,10.77c-2.89,0.45-5.73,0.2-8.53-0.6c-3.55-1.01-6-3.28-7.43-6.66c-1.18-2.82-1.69-5.8-1.73-8.83
		c-0.08-5.6-0.05-11.21-0.05-16.82c0-18.33,0-36.66,0-54.98C450.72,563.36,450.68,563.36,450.64,563.36z"/>
	<path class="st0" d="M560.69,805.96c-26.49-1.4-52.17-6.19-76.36-17.49c-22.95-10.72-42.03-26.34-57.93-45.94
		c-2.71-3.34-5.26-6.83-7.72-10.37c-1.65-2.36-2.8-4.99-3.33-7.88c-0.57-3.08,0.08-5.88,1.78-8.41c2.4-3.56,5.67-6.12,9.67-7.61
		c3.33-1.24,6.73-1.03,9.73,0.94c2.14,1.41,4.14,3.11,5.94,4.94c2.11,2.15,3.95,4.56,5.87,6.89c11.15,13.6,23.84,25.49,38.85,34.79
		c14.34,8.88,29.85,14.68,46.49,17.38c11.32,1.84,22.73,2.25,34.16,1.28c6.87-0.58,13.71-1.4,20.45-2.92
		c3.46-0.78,6.71-0.62,10.11,0.58c3.2,1.13,5.76,2.86,7.7,5.56c3.83,5.32,3.88,12.45,0.17,17.55c-1.39,1.91-3.15,3.22-5.51,3.88
		c-7.55,2.12-15.23,3.56-22.98,4.64c-4.62,0.64-9.25,1.24-13.88,1.84C562.82,805.75,561.75,805.85,560.69,805.96z"/>
	<path class="st0" d="M558.44,407.28c-8.19-0.12-15.89,1.17-23.56,2.82c-4,0.86-8.04,1.51-12.18,0.75
		c-4.06-0.74-6.96-2.93-8.79-6.56c-1.31-2.6-2.04-5.39-2.18-8.28c-0.22-4.49,1.48-8.13,5.1-10.82c3.12-2.32,6.68-3.7,10.43-4.44
		c6.4-1.28,12.83-2.44,19.28-3.43c4.18-0.64,8.41-1.1,12.64-1.26c13.06-0.5,25.58,2.24,37.56,7.25
		c29.5,12.32,50.32,33.17,61.55,63.27c3.39,9.08,5.14,18.53,5.78,28.18c0.09,1.42,0,2.89-0.29,4.28
		c-1.31,6.14-4.23,11.43-8.78,15.76c-2.93,2.78-6.49,3.51-10.4,2.75c-2.63-0.51-4.54-2.06-6.01-4.22c-1.94-2.84-2.96-6.06-3.56-9.41
		c-0.79-4.45-1.29-8.96-2.17-13.39c-2.98-15.1-9.07-28.74-19.56-40.17c-10.82-11.79-24.25-18.88-39.94-21.79
		C568.32,407.64,563.26,407.17,558.44,407.28z"/>
	<path class="st0" d="M849.55,513.59c0,4.31-0.01,8.62,0,12.93c0.01,4.6-0.02,9.21-1.23,13.69c-1.23,4.55-3.69,8.11-8.42,9.58
		c-3.87,1.2-7.81,1.2-11.68,0.08c-3.86-1.11-6.32-3.8-7.76-7.5c-1.46-3.74-1.84-7.68-1.99-11.63c-0.4-10.48-0.59-20.97-1.02-31.45
		c-0.59-14.21-1.28-28.42-2.01-42.62c-0.32-6.24-0.85-12.47-1.27-18.7c-0.55-8-2.42-15.74-4.65-23.4
		c-1.65-5.65-3.49-11.24-5.11-16.9c-0.93-3.26-1.36-6.61-0.73-10.01c0.47-2.55,1.49-4.85,3.47-6.53c4.26-3.62,9.22-5.14,14.79-4.39
		c3.65,0.49,6.33,2.56,8.4,5.5c2.32,3.3,3.55,7.04,4.23,10.97c2.51,14.57,5.06,29.14,7.41,43.74c1.69,10.49,3.15,21.01,4.59,31.54
		C848.6,483.45,850.21,498.44,849.55,513.59z"/>
	<path class="st0" d="M573.55,619.4c-0.45,10.55-0.93,21.02-1.31,31.5c-0.11,2.94-1.3,5.22-3.43,7.15
		c-6.56,5.96-17.05,5.24-22.75-1.53c-2.25-2.67-2.96-5.84-3.35-9.16c-0.78-6.66-0.4-13.34-0.25-20.02
		c0.16-7.25,0.14-14.51-0.03-21.76c-0.15-6.55-0.32-13.07,1.09-19.52c0.8-3.68,2.59-6.82,5.31-9.43c4.25-4.08,11.34-5.47,17.07-0.8
		c3.72,3.04,6.13,6.75,6.31,11.74C572.62,598.21,573.11,608.82,573.55,619.4z"/>
	<path class="st0" d="M542.44,498.23c-0.17-5.96-0.52-11.92-0.45-17.88c0.04-3.57,0.51-7.17,1.2-10.67
		c0.83-4.23,2.97-7.92,5.85-11.13c3.94-4.4,8.41-5.58,13.79-3.71c5.12,1.78,8.66,6.45,9.06,11.76c0.82,10.9,1.33,21.81,1.09,32.73
		c-0.2,9.12-0.79,18.23-1.21,27.34c-0.08,1.72-0.8,3.19-1.85,4.51c-2.52,3.15-5.65,5.5-9.36,7.08c-2.57,1.09-5.05,0.92-7.41-0.58
		c-5.98-3.78-9.92-8.97-10.43-16.2c-0.37-5.29-0.36-10.62-0.48-15.93c-0.05-2.44-0.01-4.89-0.01-7.33
		C542.31,498.23,542.38,498.23,542.44,498.23z"/>
	<path class="st0" d="M833.81,843.82c-13.77-0.16-26.3-9.7-29.66-23.12c-4.09-16.32,6.08-32.8,22.49-36.57
		c15.11-3.47,30.38,4.3,35.94,18.29c6.61,16.66-3.11,35.54-20.73,40.11C839.24,843.21,836.5,843.4,833.81,843.82z"/>
</g>
</svg>
