<?xml version="1.0" encoding="utf-8"?>
<!-- Generator: Adobe Illustrator 26.0.3, SVG Export Plug-In . SVG Version: 6.00 Build 0)  -->
<svg version="1.1" id="Layer_1" xmlns="http://www.w3.org/2000/svg" xmlns:xlink="http://www.w3.org/1999/xlink" x="0px" y="0px"
	 viewBox="0 0 1133.86 1133.86" style="enable-background:new 0 0 1133.86 1133.86;" xml:space="preserve">
<style type="text/css">
	.st0{fill:#185670;}
</style>
<g>
	<path class="st0" d="M340.4,623.33c0-21.15,0-42.3,0-63.45c0.01-39.94,0.02-79.87,0.03-119.81c0.01-14.52-0.11-29.03,0.11-43.55
		c0.18-11.82,2.01-23.4,6.3-34.5c7.67-19.81,21.66-33.16,41.57-40.36c7.81-2.82,15.88-4.57,24.17-5.19
		c5.36-0.4,10.75-0.69,16.13-0.71c19.64-0.08,39.29-0.03,58.93-0.03c0.53,0,1.05,0.01,1.58,0c2.24-0.04,2.94-0.71,2.94-2.95
		c0-6.57-0.05-13.14-0.03-19.7c0.02-10.64-0.14-21.29,0.18-31.92c0.39-12.72,3.87-24.61,11.16-35.18
		c9.4-13.64,22.5-21.73,38.53-25.34c7.17-1.61,14.44-1.96,21.74-1.53c11.71,0.69,22.78,3.68,32.78,10.01
		c14.17,8.98,22.62,21.97,26.39,38.16c1.45,6.24,1.96,12.58,1.98,18.96c0.03,13.73-0.01,27.45-0.01,41.18c0,1.71-0.01,3.42,0,5.12
		c0.02,2.62,0.6,3.19,3.29,3.19c10.05,0,20.1-0.02,30.16-0.02c13.01,0,26.02-0.1,39.02,0.07c12.99,0.17,25.59,2.45,37.44,8.01
		c17.87,8.39,29.86,22.13,36.67,40.52c2.8,7.55,4.42,15.36,5.27,23.36c0.34,3.19,0.8,6.38,1.52,9.51c1.06,4.65,3.99,7.94,8.34,9.85
		c1.97,0.86,4.04,1.55,6.13,2.1c22.07,5.91,41.54,16.44,57.9,32.49c15.73,15.43,26.47,33.82,32.43,55.01
		c2.52,8.94,3.96,18.06,4.49,27.33c1.29,22.65-2.88,44.2-13.2,64.42c-12.21,23.92-30.58,41.79-54.26,54.29
		c-8.91,4.7-18.29,8.23-27.98,10.97c-4.16,1.18-8.29,2.5-12.42,3.79c-3.47,1.08-3.46,1.1-3.46,4.83
		c0.02,23.97,0.05,47.95,0.06,71.92c0.01,23.52,0.02,47.03,0,70.55c-0.02,16.49-0.06,32.97-0.13,49.46
		c-0.05,10.69-1.21,21.24-4.79,31.39c-8.69,24.7-25.86,40.37-50.93,47.57c-7.7,2.21-15.6,2.85-23.57,2.83
		c-8.08-0.02-16.16,0.04-24.24,0.04c-72,0.03-144.01,0.06-216.01,0.06c-12.81,0-25.62,0.09-38.43-0.23
		c-12.1-0.3-23.85-2.66-34.97-7.62c-17.93-8-30.04-21.43-36.79-39.77c-2.8-7.62-4.56-15.49-5.19-23.58
		c-0.42-5.36-0.7-10.75-0.7-16.12c-0.06-48.94-0.05-97.87-0.06-146.81c0-26.21,0-52.42,0-78.62
		C340.42,623.33,340.41,623.33,340.4,623.33z M371.17,625.73c0.04,0,0.09,0,0.13,0c0,30.28,0,60.56,0,90.84
		c0,18.13,0.02,36.26,0.03,54.39c0.02,28.57,0.02,57.14,0.1,85.72c0.01,3.6,0.29,7.22,0.81,10.78c1.04,7.11,3.54,13.72,7.78,19.58
		c8.33,11.51,20.04,16.79,33.84,17.85c5.88,0.45,11.81,0.35,17.72,0.36c27.85,0.06,55.71,0.12,83.57,0.11
		c60.83-0.03,121.67-0.08,182.5-0.16c6.06-0.01,12.06-0.75,17.84-2.65c16.54-5.46,26.64-16.61,29.89-33.84
		c0.93-4.95,0.79-9.94,0.88-14.92c0.23-12.48,0.31-24.95,0.42-37.43c0.07-8.08,0.12-16.16,0.11-24.24
		c-0.06-26.14-0.15-52.28-0.22-78.42c-0.03-10.77-0.02-21.54-0.04-32.32c-0.01-6.04-0.06-12.09-0.01-18.13
		c0.01-1.53-0.54-2.51-1.96-3.03c-0.49-0.18-0.96-0.42-1.44-0.63c-9.07-3.81-18.12-7.68-27.23-11.41
		c-19.99-8.19-37.11-20.4-51.37-36.58c-18.48-20.95-28.06-45.46-28.85-73.39c-0.3-10.61,0.73-21.11,2.76-31.52
		c2.65-13.55,6.94-26.52,13.55-38.68c12.01-22.11,29.73-38.14,52.28-49.02c9.07-4.38,18.55-7.64,28.27-10.24
		c2.99-0.8,5.88-1.87,8.48-3.6c2.75-1.83,4.66-4.29,5.27-7.54c0.36-1.92,0.49-3.92,0.38-5.87c-0.14-2.35-0.54-4.7-1.02-7
		c-1.78-8.49-5.16-16.26-10.91-22.85c-8.93-10.24-20.49-14.95-33.82-15.11c-23.45-0.29-46.9-0.22-70.35-0.3
		c-9.39-0.03-18.79-0.08-28.18-0.07c-42.5,0.05-85.01,0.11-127.51,0.18c-18.72,0.03-37.45,0.08-56.17,0.1
		c-4.62,0-9.18,0.49-13.65,1.6c-13.8,3.44-23.89,11.41-29.58,24.59c-2.85,6.6-4.04,13.56-4.06,20.73
		c-0.04,15.11-0.05,30.21-0.07,45.32c-0.05,38.23-0.12,76.45-0.16,114.68C371.15,577.65,371.17,601.69,371.17,625.73z M761.68,428
		c-9.17,0.1-17.7,1.07-26.07,3.2c-42.22,10.7-74.82,47.25-77.91,93.32c-0.76,11.34,0.33,22.56,3.21,33.58
		c11.43,43.64,50.02,75.89,98.58,76.76c10.76,0.19,21.34-1.26,31.68-4.29c40.77-11.94,71.15-47.73,73.46-93.13
		c0.63-12.44-0.96-24.63-4.7-36.53C846.85,459.35,808.3,428.2,761.68,428z M558.27,315c10.7,0,21.41,0,32.11,0
		c2.75,0,3.16-0.44,3.2-3.22c0.11-7.22,0.35-14.44,0.32-21.66c-0.04-10.04-0.23-20.08-0.47-30.12c-0.06-2.34-0.41-4.72-0.97-7
		c-2.47-10.06-8.96-16.57-18.48-20.15c-8-3-16.27-3.34-24.62-1.81c-5.49,1-10.61,2.96-15.13,6.29c-5.63,4.15-9.4,9.56-10.33,16.57
		c-0.62,4.67-1.01,9.41-1.04,14.12c-0.07,11.81,0.13,23.63,0.22,35.44c0.02,3.02,0.03,6.04,0.09,9.06c0.04,1.7,0.72,2.36,2.39,2.46
		c0.52,0.03,1.05,0.01,1.58,0.01C537.51,315,547.89,315,558.27,315z"/>
	<path class="st0" d="M573.85,734.85c-25.62,0-51.24,0-76.87,0c-14.26,0-28.51,0.03-42.77,0.03c-3.55,0-7.09-0.23-10.54-1.15
		c-5.91-1.58-9.06-5.43-9.49-11.57c-0.21-2.96-0.15-5.9,0.82-8.76c1.11-3.29,3.25-5.65,6.37-7.14c2.34-1.11,4.85-1.67,7.4-1.9
		c2.55-0.23,5.11-0.36,7.67-0.37c72.86-0.01,145.72,0,218.58,0c6.04,0,12.09-0.07,18.13,0.03c3.28,0.05,6.56,0.26,9.76,1.12
		c3.11,0.84,5.9,2.21,7.9,4.86c1.77,2.35,2.51,5.08,2.62,7.92c0.09,2.21-0.03,4.48-0.46,6.65c-1.1,5.59-4.92,8.53-10.28,9.49
		c-2.89,0.52-5.87,0.78-8.81,0.79c-15.64,0.06-31.27,0-46.91,0C622.59,734.85,598.22,734.85,573.85,734.85z"/>
	<path class="st0" d="M573.75,789.2c-15.37,0-30.74,0.01-46.12,0c-9.2-0.01-18.39-0.11-27.59-0.1c-14.84,0.02-29.69,0.12-44.53,0.14
		c-3.74,0.01-7.49-0.12-11.15-1.04c-6.46-1.61-9.55-5.23-10.24-11.81c-0.26-2.52-0.09-4.98,0.49-7.42c1-4.2,3.57-7.07,7.55-8.71
		c3.34-1.37,6.87-1.65,10.41-1.9c0.85-0.06,1.71-0.03,2.56-0.03c79.16,0,158.32,0,237.47,0c3.36,0,6.69,0.21,9.96,1.05
		c7,1.81,10.4,5.91,10.91,13.12c0.17,2.37-0.03,4.72-0.64,7.03c-0.97,3.68-3.18,6.37-6.72,7.71c-2.12,0.8-4.4,1.37-6.66,1.6
		c-3.32,0.34-6.69,0.36-10.03,0.39c-5.32,0.05-10.64-0.02-15.96-0.03c-16.68-0.04-33.37-0.09-50.05-0.11
		c-16.55-0.02-33.11,0-49.66,0C573.75,789.12,573.75,789.16,573.75,789.2z"/>
	<path class="st0" d="M648.09,656.37c2.7-0.51,5.32-1.01,8.06-1.54c0.24,0.69,0.47,1.22,0.61,1.77c1.65,6.76,3.21,13.54,4.97,20.26
		c0.51,1.93-0.36,3.54-2.48,3.27c-0.39-0.05-0.79-0.01-1.18-0.01c-68.46,0-136.91,0-205.37,0c-3.65,0-3.68,0.01-4.41-3.5
		c-2.4-11.59-1.87-23.1,0.93-34.55c7.04-28.83,29.1-55,56.34-66.81c6.29-2.73,12.84-4.58,19.61-5.66c0.78-0.12,1.57-0.16,2.36-0.2
		c0.89-0.05,1.55,0.35,1.84,1.18c0.32,0.91,0.03,1.7-0.77,2.23c-0.54,0.36-1.14,0.66-1.71,0.97c-7.68,4.19-15.12,8.75-22.01,14.15
		c-7.93,6.21-14.82,13.36-19.84,22.17c-4.15,7.28-6.64,15.12-7.92,23.36c-1.12,7.16-1.38,14.37-1.13,21.61
		c0.03,0.79,0.08,1.58,0.18,2.36c0.22,1.66,0.87,2.24,2.58,2.33c0.59,0.03,1.18,0.01,1.77,0.01c54.4,0,108.8,0,163.19,0
		c0.33,0,0.66,0,0.99,0C647.39,659.75,647.85,659.33,648.09,656.37z"/>
	<path class="st0" d="M521.58,842.4c-14.58,0-29.16,0.07-43.74-0.03c-7.88-0.05-15.75-0.35-23.63-0.64
		c-1.54-0.06-3.13-0.43-4.58-0.98c-4.62-1.75-8.54-4.56-11.89-8.19c-3.12-3.38-3.88-7.36-3.01-11.71c0.6-3.02,2.47-5.16,5.18-6.58
		c2.9-1.53,6.05-2.23,9.27-2.34c5.25-0.17,10.5-0.13,15.75-0.15c5.78-0.02,11.56,0.02,17.34,0.01c14.51-0.02,29.03-0.08,43.54-0.07
		c14.25,0.01,28.5,0.11,42.75,0.11c6.17,0,12.34-0.24,18.51-0.25c3.55-0.01,7.07,0.4,10.48,1.5c6.13,1.98,9.57,6.24,9.94,12.31
		c0.44,7.16-2.34,12.05-8.42,14.82c-3.21,1.46-6.63,2.04-10.11,2.28c-0.72,0.05-1.44,0.04-2.17,0.04c-21.74,0-43.48,0-65.22,0
		C521.58,842.49,521.58,842.44,521.58,842.4z"/>
	<path class="st0" d="M561.77,533.95c14.25-0.18,25.77-6.04,35.24-16.36c4.02-4.37,7.35-9.25,10.26-14.41
		c0.26-0.46,0.49-0.93,0.78-1.37c0.6-0.88,1.48-1.18,2.38-0.85c0.87,0.32,1.2,1.02,1.1,1.87c-0.17,1.56-0.33,3.14-0.66,4.67
		c-3.09,14.23-10.96,25.26-22.77,33.54c-8.78,6.15-18.57,9.69-29.25,10.66c-18.89,1.71-35.48-3.61-49.29-16.71
		c-10.01-9.49-15.89-21.25-17.84-34.92c-1.69-11.86-0.26-23.32,4.8-34.21c5.82-12.54,15.44-21.21,27.99-26.73
		c7.27-3.19,14.9-5.01,22.81-5.64c2.22-0.18,4.45-0.3,6.68-0.37c1.33-0.04,2,0.49,2.19,1.49c0.2,1.03-0.39,1.91-1.69,2.27
		c-4.76,1.29-9.42,2.83-13.92,4.84c-6.9,3.08-13.21,7.03-18.37,12.64c-6.61,7.17-10.01,15.72-10.98,25.36
		c-1.21,12.01,1.61,22.97,8.52,32.8c7.93,11.29,18.82,18.08,32.45,20.34C555.37,533.39,558.58,533.6,561.77,533.95z"/>
	<path class="st0" d="M642.73,827.59c2.93-3.6,5.69-7.1,8.58-10.47c0.87-1.02,2.07-1.81,3.23-2.53c1.68-1.05,3.51-1.07,5.24-0.09
		c1.25,0.71,2.48,1.5,3.59,2.4c3.2,2.62,6.34,5.3,9.49,7.99c1.36,1.16,1.37,2.33,0.02,3.45c-3.19,2.63-6.39,5.25-9.64,7.8
		c-1.02,0.8-2.18,1.46-3.34,2.06c-2.5,1.3-4.98,1.14-7.2-0.59c-1.55-1.2-2.97-2.58-4.36-3.96c-1.57-1.57-3.05-3.24-4.75-5.05
		c-0.68,2-2.37,2.47-3.84,3.24c-3.19,1.68-6.34,3.46-9.59,5c-1.82,0.86-3.8,1.42-5.75,1.95c-1.66,0.45-3.29,0.12-4.64-1
		c-3.55-2.93-5.9-6.63-6.99-11.12c-0.38-1.56-0.1-3.01,0.78-4.32c2.7-4.02,6.41-6.68,11.04-8.08c2.03-0.61,3.92-0.2,5.6,1.01
		c1.22,0.88,2.4,1.84,3.46,2.9c2.72,2.76,5.35,5.59,8.03,8.39C642.03,826.95,642.42,827.29,642.73,827.59z"/>
	<path class="st0" d="M414.77,839.21c-1.02-0.3-2.08-0.46-2.98-0.93c-1.21-0.64-2.4-1.4-3.39-2.33c-2.34-2.2-4.59-4.5-6.83-6.81
		c-1.06-1.09-1.11-1.79-0.18-2.94c2.22-2.76,4.41-5.55,6.79-8.17c1.22-1.34,2.75-2.42,4.26-3.44c1.67-1.14,3.48-1.1,5.18,0.01
		c1.21,0.78,2.41,1.59,3.53,2.49c3.11,2.52,6.18,5.09,9.25,7.66c1.47,1.23,1.53,2.4,0.12,3.57c-3.23,2.68-6.48,5.35-9.76,7.96
		c-0.97,0.77-2.04,1.44-3.15,2C416.76,838.71,415.78,838.89,414.77,839.21z"/>
	<path class="st0" d="M687.46,839.27c-1.09-0.43-2.34-0.7-3.34-1.36c-1.36-0.89-2.6-2-3.75-3.15c-1.76-1.76-3.42-3.63-5.09-5.47
		c-1.26-1.39-1.29-1.92-0.13-3.41c1.85-2.39,3.63-4.83,5.61-7.09c1.28-1.47,2.78-2.78,4.34-3.95c1.92-1.44,4.04-1.45,6.06-0.1
		c1.25,0.84,2.48,1.72,3.64,2.68c2.92,2.44,5.8,4.92,8.68,7.4c1.46,1.26,1.51,2.39,0.08,3.58c-3.08,2.56-6.16,5.11-9.3,7.59
		c-1.12,0.89-2.37,1.66-3.64,2.3C689.71,838.75,688.65,838.92,687.46,839.27z"/>
	<path class="st0" d="M426.12,720.28c-0.34,1.12-0.52,2.31-1.04,3.34c-0.83,1.63-1.8,3.2-2.84,4.7c-1.86,2.7-3.81,5.33-5.73,7.99
		c-1.28,1.78-2.32,1.86-3.8,0.3c-2.65-2.82-5.33-5.61-7.92-8.48c-1.14-1.26-2.16-2.63-3.12-4.04c-1-1.46-1.13-3.13-0.21-4.65
		c0.98-1.61,2-3.27,3.33-4.58c2.47-2.44,5.16-4.66,7.79-6.93c0.9-0.78,1.85-0.88,2.68-0.17c2.97,2.57,5.94,5.15,8.79,7.85
		C425.29,716.81,426.04,718.39,426.12,720.28z"/>
	<path class="st0" d="M426.14,774.93c-0.35,1.11-0.55,2.31-1.09,3.32c-0.84,1.55-1.84,3.03-2.92,4.43c-2.08,2.71-4.25,5.35-6.39,8
		c-1.29,1.61-2.38,1.66-3.7,0.16c-2.64-3.01-5.29-6.02-7.88-9.07c-0.93-1.1-1.75-2.29-2.54-3.5c-1.15-1.77-1.13-3.62-0.02-5.38
		c0.66-1.05,1.34-2.16,2.26-2.96c3.01-2.63,6.12-5.16,9.23-7.68c0.89-0.72,1.82-0.67,2.68,0.12c2.66,2.44,5.32,4.89,7.86,7.45
		C424.98,771.17,425.96,772.82,426.14,774.93z"/>
	<path class="st0" d="M749.28,520.97c0-7.16-0.01-14.31,0.01-21.47c0-1.38,0.12-2.75,0.21-4.13c0.28-4.28-0.13-8.52-0.49-12.78
		c-0.28-3.34-0.46-6.68,0.17-10.01c0.93-4.85,3.81-7.59,8.67-8.36c2.3-0.36,4.56-0.36,6.85,0.02c4.53,0.75,7.37,3.4,7.96,7.98
		c0.33,2.52,0.27,5.1,0.2,7.64c-0.06,2.16-0.34,4.32-0.61,6.47c-0.67,5.38,0.13,10.75,0.12,16.13c-0.02,9.72,0.18,19.43,0.18,29.15
		c0,7.61-0.16,15.23-0.24,22.84c-0.01,0.59-0.04,1.2,0.09,1.76c0.36,1.62,2.01,2.24,3.36,1.28c0.42-0.3,0.78-0.7,1.15-1.08
		c2.17-2.19,4.32-4.41,6.51-6.58c1.02-1.02,2.11-1.97,3.2-2.91c3.07-2.63,6.64-3.91,10.69-3.81c2.69,0.07,5.38,0.17,8.07,0.31
		c1.67,0.09,2.12,0.52,2.13,2.17c0.01,2.82-0.01,5.65-0.16,8.46c-0.09,1.72-0.64,3.34-1.82,4.69c-9.5,10.81-19.31,21.32-30.24,30.72
		c-1.05,0.9-2.18,1.7-3.15,2.68c-3.09,3.12-6.93,3.82-11.06,3.53c-4.75-0.33-9-1.76-12.81-4.87c-10.12-8.25-19.28-17.42-27.4-27.65
		c-2.29-2.89-3.28-6.25-3.9-9.76c-0.48-2.78-0.85-5.58-1.21-8.37c-0.29-2.23,0.66-3.18,2.84-2.64c5.34,1.32,10.65,2.76,15.98,4.15
		c2.36,0.62,4.28,1.94,5.97,3.66c1.33,1.36,2.68,2.71,4.02,4.06c0.32,0.33,0.64,0.66,0.98,0.97c0.67,0.59,1.39,0.99,2.32,0.58
		c0.96-0.41,1.39-1.13,1.38-2.16c-0.01-2.36,0-4.73,0-7.09c0-8.54,0-17.07,0-25.61C749.26,520.97,749.27,520.97,749.28,520.97z"/>
	<path class="st0" d="M573.69,265.66c0.03,3.91-1.24,7.12-4.08,9.44c-2.11,1.73-4.5,3.16-6.89,4.5c-2.72,1.52-5.44,1.13-7.94-0.7
		c-2.51-1.84-4.71-4.04-6.23-6.75c-2.56-4.57-2.39-9.21,0.54-13.57c1.61-2.4,3.74-4.39,6.14-6.04c2.69-1.87,5.53-2.12,8.27-0.28
		c2.38,1.6,4.72,3.33,6.82,5.29C572.66,259.74,573.71,262.64,573.69,265.66z"/>
</g>
</svg>
