<?xml version="1.0" encoding="utf-8"?>
<!-- Generator: Adobe Illustrator 26.0.3, SVG Export Plug-In . SVG Version: 6.00 Build 0)  -->
<svg version="1.1" id="Layer_1" xmlns="http://www.w3.org/2000/svg" xmlns:xlink="http://www.w3.org/1999/xlink" x="0px" y="0px"
	 viewBox="0 0 1133.86 1133.86" style="enable-background:new 0 0 1133.86 1133.86;" xml:space="preserve">
<style type="text/css">
	.st0{fill:#185670;}
</style>
<g>
	<path class="st0" d="M384.22,459.4c0-1.16,0-2.12,0-3.08c0-26.51-0.03-53.03,0.02-79.54c0.01-6.89,0.07-13.79,0.53-20.66
		c1.21-18.16,5.06-35.78,11.26-52.89c8.14-22.47,19.77-42.88,36-60.5c25.31-27.48,56.11-45.5,92.78-53.23
		c8.08-1.7,16.27-2.56,24.44-3.65c8.84-1.18,17.69-0.62,26.54-0.72c2.17-0.02,4.33,0.58,6.51,0.85c4.73,0.58,9.46,1.14,14.19,1.69
		c8.82,1.03,17.41,3.09,25.91,5.58c26.7,7.84,50.31,21.12,70.33,40.51c26.72,25.87,44.25,56.95,52.18,93.36
		c3.03,13.88,4.56,27.94,4.63,42.13c0.12,25.3,0.14,50.6,0.19,75.89c0.01,4.09-0.02,8.18-0.02,12.27c0,0.59,0.09,1.18,0.16,2
		c0.97,0.04,1.85,0.09,2.73,0.1c7.8,0.02,15.61-0.16,23.4,0.08c22.21,0.69,41.65,8.38,57.99,23.54
		c12.11,11.23,21.11,24.5,25.97,40.41c2.59,8.46,3.85,17.13,3.86,25.96c0.03,80.9,0.02,161.8,0.01,242.71
		c0,11.14,0.01,22.27-0.04,33.41c-0.1,22.59-7.76,42.48-22.37,59.5c-12.88,15-29.38,24.29-48.75,28.39
		c-4.22,0.89-8.44,1.73-12.68,2.53c-1.03,0.2-2.11,0.21-3.16,0.21c-13.26,0.01-26.51,0.01-39.77,0.01
		c-125.21,0-250.41-0.02-375.62,0.03c-12.22,0-23.9-2.41-35.14-7c-26.04-10.63-46.74-34.38-53.67-61.42
		c-1.74-6.78-2.49-13.69-2.5-20.68c-0.03-20.38-0.07-40.76-0.08-61.13c-0.01-53.25-0.01-106.51,0-159.76
		c0-18.86-0.24-37.73,0.14-56.58c0.49-23.76,8.23-44.87,25.05-62.06c12.71-12.99,27.87-21.98,45.75-26.01
		c6.14-1.39,12.37-2.12,18.68-2.11c7.27,0.01,14.54,0.01,21.81,0C382.32,459.53,383.12,459.45,384.22,459.4z M566.13,870.95
		c66.43,0,132.85,0.01,199.28-0.02c3.93,0,7.86-0.23,11.79-0.46c5.9-0.35,11.53-1.87,16.65-4.8c15.91-9.1,24.74-22.58,24.75-41.22
		c0.03-73.7,0.02-147.41,0.01-221.11c0-17.95-0.02-35.9-0.09-53.86c-0.03-9.71-2.98-18.46-8.96-26.14
		c-9.47-12.15-22.03-18.23-37.32-18.44c-14.77-0.21-29.54-0.03-44.31-0.02c-79.61,0.03-159.21,0.07-238.82,0.1
		c-28.55,0.01-57.11-0.02-85.66-0.06c-12.12-0.02-24.24-0.17-36.35-0.14c-3.85,0.01-7.76,0.04-11.54,0.68
		c-24.99,4.2-39,24.23-40.25,44.8c-0.25,4.07-0.09,8.17-0.08,12.26c0.03,12.2,0.09,24.39,0.1,36.59
		c0.03,31.89,0.04,63.78,0.04,95.67c0,42.27-0.03,84.54-0.02,126.8c0,2.8,0.07,5.61,0.4,8.38c1.48,12.44,6.98,22.78,16.7,30.72
		c8.58,7.01,18.54,10.29,29.62,10.29C430.1,870.94,498.12,870.95,566.13,870.95z M704.15,459.1c0.09-1.69,0.23-3.19,0.23-4.69
		c0.04-25.07,0.06-50.14,0.08-75.2c0.01-8.26-0.31-16.49-1.18-24.71c-1.44-13.62-4.54-26.83-9.68-39.55
		c-6.98-17.26-16.49-32.93-29.94-45.89c-26.01-25.09-57.41-37.51-93.37-38.67c-12.85-0.42-25.52,1.21-38.04,4.06
		c-18.1,4.12-34.84,11.33-49.41,22.93c-32.13,25.58-48.73,59.47-52.44,99.99c-0.67,7.3-0.81,14.67-0.84,22
		c-0.1,25.37-0.04,50.74-0.02,76.11c0,1.18,0.21,2.36,0.33,3.62C521.36,459.1,612.58,459.1,704.15,459.1z"/>
	<path class="st0" d="M612.82,642.2c-0.36,15.53-6.78,27.76-19.23,36.9c-0.61,0.45-1.24,0.87-1.82,1.35
		c-1.31,1.07-1.97,2.47-1.98,4.16c0,2.2,0.01,4.39,0.01,6.59c0,20.83,0.03,41.65-0.03,62.48c-0.01,2.48-0.24,5.01-0.77,7.43
		c-2.09,9.56-8.29,15.26-17.57,17.57c-8.24,2.05-19.05-2.54-23.71-9.64c-2.39-3.65-2.99-7.73-3.02-11.93
		c-0.08-10.22-0.02-20.44-0.1-30.67c-0.03-3.23-0.44-6.45-0.46-9.68c-0.05-10.3-0.06-20.6,0.06-30.9c0.03-2.88-1-4.83-3.35-6.46
		c-9.89-6.87-16.22-16.16-18.58-28.03c-4.39-22.02,7.45-46.12,32.89-53.28c24.68-6.95,50.97,9.48,56.22,33.34
		C612.14,634.96,612.35,638.61,612.82,642.2z"/>
</g>
</svg>
