<?xml version="1.0" encoding="utf-8"?>
<!-- Generator: Adobe Illustrator 26.0.3, SVG Export Plug-In . SVG Version: 6.00 Build 0)  -->
<svg version="1.1" id="Layer_1" xmlns="http://www.w3.org/2000/svg" xmlns:xlink="http://www.w3.org/1999/xlink" x="0px" y="0px"
	 viewBox="0 0 1133.86 1133.86" style="enable-background:new 0 0 1133.86 1133.86;" xml:space="preserve">
<style type="text/css">
	.st0{fill:#185670;}
</style>
<g>
	<path class="st0" d="M756.44,859.54c-1.11,1.47-0.95,2.88-0.96,4.21c-0.13,8.86-0.61,17.72,0.23,26.58
		c0.49,5.17,0.24,10.36-0.88,15.47c-2.05,9.32-6.89,16.83-14.66,22.4c-1.55,1.11-3.21,2.07-4.82,3.08
		c-3.08,1.94-6.37,2.66-10.07,2.65c-101.79-0.07-203.58-0.07-305.37,0c-3.68,0-6.93-0.8-10.15-2.47
		c-11.58-6.03-17.83-15.64-19.54-28.43c-0.71-5.29-0.81-10.6-0.79-15.92c0.03-7.09,0-14.19-0.06-21.28
		c-0.02-2.04-0.13-4.09-1.16-6.16c-1.02-0.08-2.09-0.25-3.16-0.25c-43.12,0.04-86.23,0.1-129.35,0.14c-4.64,0-9.28,0.05-13.91-0.18
		c-2.7-0.14-5.42-0.62-8.07-1.24c-12.42-2.94-20.97-10.6-26.29-22.03c-0.56-1.2-0.8-2.59-0.96-3.91c-0.16-1.34-0.05-2.72-0.05-4.09
		c0-85.81,0.03-171.61-0.08-257.42c-0.01-4.72,1.15-8.77,3.59-12.71c6.87-11.13,16.82-17.12,29.75-18.5
		c4.5-0.48,8.97-0.25,13.47-0.12c9.41,0.28,18.83,0.27,28.24,0.3c7.91,0.02,15.83-0.08,23.74-0.15c1.21-0.01,2.42-0.11,3.81-0.18
		c0.2-1.06,0.45-1.96,0.51-2.88c0.09-1.36,0.04-2.73,0.04-4.09c0-22.1-0.01-44.2,0.01-66.3c0.01-5.88,0.4-11.71,2.02-17.41
		c3.08-10.83,9.91-17.96,20.69-21.29c4.46-1.38,9.02-2.16,13.67-2.32c3.82-0.13,7.64-0.12,11.46-0.12c14.6-0.01,29.2,0,43.8-0.01
		c1.62,0,3.23-0.08,5.04-0.13c0.21-0.96,0.48-1.71,0.53-2.48c0.09-1.22,0.04-2.45,0.04-3.68c0.02-18.42,0.01-36.83,0.06-55.25
		c0.06-19.37,0.29-38.74,0.25-58.11c-0.04-19.64-0.31-39.28-0.51-58.93c-0.06-5.74,0.23-11.43,1.55-17.06
		c2.99-12.78,10.84-21.43,22.56-26.81c1.08-0.49,2.34-0.65,3.54-0.8c1.08-0.13,2.18-0.03,3.27-0.03c77.5,0,155.01,0,232.51,0
		c1.77,0,3.54,0,5.4,0c1.58,1.56,3.14,3.07,4.67,4.62c13.99,14.18,27.97,28.36,41.97,42.53c2.2,2.23,4.45,4.43,6.73,6.58
		c6.63,6.26,9.72,14.05,9.81,23.05c0.08,7.91-0.05,15.82-0.09,23.74c-0.07,17.6-0.21,35.19-0.2,52.79
		c0.01,21.55,0.13,43.11,0.22,64.66c0.01,1.61-0.24,3.25,0.42,4.86c1.45,0.79,2.98,0.49,4.44,0.49c15.96,0.03,31.93,0.02,47.89,0.01
		c4.78,0,9.55,0.08,14.28,0.84c3.92,0.63,7.75,1.51,11.42,3.05c7.17,3.01,12.16,8.12,15.09,15.3c1.82,4.46,2.84,9.12,3.22,13.89
		c0.34,4.21,0.49,8.45,0.5,12.67c0.05,21.01,0.02,42.02,0.03,63.02c0,1.75-0.2,3.54,0.53,5.41c0.93,0.12,1.85,0.34,2.76,0.34
		c16.1,0.04,32.2,0.07,48.3,0.04c2.72,0,5.45-0.26,8.17-0.4c6.04-0.32,11.99,0.23,17.82,1.87c8.48,2.39,15.16,7.3,20.18,14.49
		c1.09,1.56,2.02,3.24,3.02,4.86c1.54,2.5,2.15,5.16,2.15,8.15c-0.06,87.31-0.06,174.61-0.01,261.92c0,2.83-0.63,5.33-1.95,7.8
		c-7.04,13.12-18.08,20.07-32.81,21.15c-4.61,0.34-9.27,0.15-13.9,0.13c-16.78-0.06-33.57-0.22-50.35-0.22
		c-26.2,0-52.4,0.09-78.59,0.15C759.48,859.45,757.85,859.51,756.44,859.54z M715.9,538.71c0.06-2,0.16-3.61,0.14-5.22
		c-0.18-21.28-0.42-42.56-0.57-63.84c-0.17-24.83-0.3-49.66-0.38-74.48c-0.08-21.7,0.71-43.37,2.03-65.02
		c0.7-11.5,0.2-22.89-1.75-34.23c-3.52-20.41-12.63-37.89-27.62-52.23c-5.93-5.68-12.32-10.77-19.45-14.89
		c-5.18-3-10.69-4.74-16.75-4.51c-1.91,0.07-3.82-0.03-5.73-0.03c-60.18-0.07-120.35-0.13-180.53-0.19
		c-6.55-0.01-13.1-0.03-19.65,0.08c-2.44,0.04-4.89,0.34-7.31,0.68c-4.96,0.69-7.64,3.64-8.53,8.55c-0.69,3.8-0.63,7.61-0.63,11.42
		c-0.01,93.59,0.01,187.17,0.02,280.76c0,1.36-0.05,2.74,0.07,4.09c0.24,2.58,0.57,5.15,0.91,7.72c0.05,0.38,0.29,0.74,0.4,1.02
		c0.33,0.2,0.56,0.45,0.79,0.45c93.74,0.08,187.48,0.15,281.21,0.2C713.5,539.01,714.44,538.84,715.9,538.71z M386.85,836.94
		c2.12-2.19,2.48-4.52,2.49-7.06c0.03-13.37,0.12-26.74,0.22-40.11c0.03-4.38,0.44-8.73,1.51-12.97
		c3.37-13.32,11.79-21.44,25.24-24.39c4.04-0.89,8.12-0.96,12.21-0.98c29.75-0.1,59.49-0.24,89.24-0.25
		c61.13-0.01,122.27,0.05,183.4,0.1c5.73,0,11.46,0.05,17.19,0.09c3.83,0.03,7.64,0.2,11.38,1.11c10.81,2.64,18.55,8.91,22.74,19.31
		c1.43,3.55,2.45,7.26,2.65,11.09c0.29,5.58,0.54,11.17,0.58,16.76c0.08,10.91-0.02,21.83,0,32.74c0,1.44-0.42,3.01,0.82,4.5
		c1.38,0.04,2.86,0.11,4.35,0.11c46.4-0.01,92.79-0.02,139.19-0.04c1.64,0,3.28,0.01,4.91-0.09c5.86-0.38,9.7-3.61,10.85-9.33
		c0.46-2.26,0.66-4.6,0.67-6.9c0.06-8.73-0.03-17.46-0.02-26.19c0.01-25.37,0.03-50.75,0.05-76.12c0-1.36,0.02-2.73-0.06-4.09
		c-0.04-0.65-0.3-1.28-0.45-1.88c-1.99-0.79-3.92-0.45-5.8-0.45c-225.02-0.02-450.04-0.02-675.06-0.02c-1.23,0-2.46-0.04-3.68,0.03
		c-0.78,0.04-1.54,0.24-2.3,0.37c-0.67,1.66-0.46,3.17-0.46,4.64c-0.02,9.55-0.01,19.1-0.01,28.65
		c-0.01,24.83-0.01,49.66-0.04,74.49c0,2.74,0.08,5.46,0.85,8.11c1.11,3.78,3.46,6.46,7.21,7.77c1.28,0.45,2.63,0.82,3.96,0.91
		c3.26,0.22,6.54,0.36,9.81,0.36c19.92-0.04,39.84-0.17,59.77-0.18c24.29-0.01,48.58,0.07,72.87,0.09
		C384.45,837.1,385.79,836.98,386.85,836.94z M915.86,641.53c0.93-1.67,0.63-3.33,0.63-4.93c0.02-17.33,0.05-34.65-0.01-51.98
		c-0.01-3.95-0.29-7.9-0.56-11.85c-0.09-1.34-0.42-2.69-0.78-4c-0.82-3.02-2.82-4.98-5.82-5.73c-1.97-0.49-4.02-0.84-6.04-0.92
		c-6-0.22-12-0.37-18-0.37c-206.32-0.02-412.63-0.01-618.95-0.02c-6.55,0-13.1-0.1-19.65-0.05c-3.4,0.03-6.82,0.15-10.11,1.23
		c-4.15,1.36-6.67,4.14-7.28,8.48c-0.27,1.89-0.43,3.8-0.46,5.7c-0.1,6.82-0.18,13.64-0.18,20.46c-0.01,13.23,0.02,26.47,0.08,39.7
		c0.01,1.45-0.41,3.03,0.78,4.27c3.14,0.44,675.44,0.76,684.42,0.32C914.58,641.82,915.23,641.64,915.86,641.53z M573.05,773.52
		c-1.91,0-3.82,0-5.73,0c-37.39,0-74.78,0.01-112.16,0c-8.6,0-17.19-0.05-25.79-0.09c-3.03-0.02-5.97,0.42-8.83,1.44
		c-3.72,1.33-6.24,3.9-7.44,7.61c-0.62,1.92-0.95,3.98-1.13,6c-0.2,2.17-0.09,4.36-0.08,6.54c0.06,23.05,0.14,46.11,0.17,69.16
		c0.01,9.96-0.11,19.92-0.16,29.88c-0.01,2.73,0.09,5.44,0.92,8.09c1.33,4.22,4.02,7.06,8.27,8.33c1.3,0.39,2.64,0.71,3.99,0.83
		c2.58,0.22,5.17,0.39,7.76,0.38c19.38-0.05,38.75-0.16,58.13-0.21c16.1-0.05,32.2-0.06,48.3-0.06c34.11,0,68.23-0.01,102.34,0.06
		c23.61,0.05,47.21,0.23,70.82,0.29c2.86,0.01,5.74-0.17,8.56-0.57c6.54-0.91,10.31-4.38,11.64-10.86c0.54-2.64,0.67-5.41,0.67-8.12
		c0.01-19.78-0.08-39.56-0.1-59.34c-0.02-13.64,0.06-27.28-0.01-40.93c-0.02-3.12-0.27-6.28-0.78-9.36
		c-0.79-4.85-3.48-7.37-8.34-8.3c-0.53-0.1-1.08-0.17-1.62-0.2c-3.4-0.2-6.8-0.56-10.2-0.56
		C665.84,773.51,619.44,773.52,573.05,773.52z M229.51,686.9c2.52,0.98,4.59,0.65,6.6,0.65c224.3,0.02,448.59,0.02,672.89,0.01
		c1.36,0,2.73,0.04,4.09-0.04c0.78-0.05,1.55-0.32,2.28-0.49c0.17-0.56,0.39-0.94,0.39-1.32c0.02-6,0.03-12,0-18
		c0-0.49-0.35-0.98-0.62-1.69c-1.94-0.02-3.84-0.06-5.74-0.06c-224.43,0-448.87,0-673.3,0c-1.36,0-2.73-0.05-4.09,0.04
		c-0.76,0.05-1.5,0.34-2.49,0.58C229.43,673.41,229.44,680.05,229.51,686.9z M405.8,537.84c0.04-1.58,0.12-3.06,0.12-4.54
		c0.01-13.37,0.01-26.73,0.01-40.1c0-13.64,0.01-27.28-0.01-40.91c0-1.47,0.18-2.97-0.44-4.6c-1.26-0.09-2.46-0.26-3.65-0.26
		c-18.55,0-37.1,0.01-55.66,0.03c-1.23,0-2.46,0.01-3.68,0.15c-5.25,0.61-8.78,3.65-10.01,8.8c-0.44,1.83-0.64,3.77-0.64,5.66
		c-0.05,24-0.05,48.01-0.05,72.01c0,1.21,0.11,2.42,0.17,3.5c1.82,1.21,3.65,0.83,5.38,0.83c20.73,0.03,41.47,0.02,62.2,0.02
		c1.23,0,2.46,0.04,3.68-0.05C404,538.32,404.77,538.06,405.8,537.84z M739.89,538.46c1.63,0.08,2.96,0.2,4.3,0.2
		c6.96,0.02,13.91,0.01,20.87,0.01c14.18,0,28.37,0.01,42.55-0.02c1.6,0,3.28,0.37,4.89-0.64c0.72-3.56,0.92-7.22,0.92-10.89
		c-0.01-21.68-0.04-43.36-0.09-65.03c0-1.62-0.16-3.27-0.46-4.87c-1.04-5.59-4.54-8.89-10.18-9.59c-1.62-0.2-3.27-0.19-4.9-0.19
		c-17.73-0.01-35.46-0.01-53.19-0.01c-0.82,0-1.64-0.04-2.45,0.03c-0.77,0.07-1.53,0.27-2.34,0.42c-0.12,0.74-0.28,1.27-0.28,1.79
		c-0.01,28.9-0.02,57.81,0,86.71C739.51,536.9,739.7,537.43,739.89,538.46z"/>
	<path class="st0" d="M581.24,482.15c0.92,2.07,1.65,3.67,2.36,5.28c2.19,4.92,0.61,9.32-1.97,13.53c-0.91,1.47-2.49,2.08-4.16,2.31
		c-4.01,0.55-7.85,0.28-11.44-1.91c-5.47-3.34-11.02-6.57-15.99-10.64c-2-1.64-3.88-3.44-5.67-5.3c-1.81-1.88-3.17-4.1-4.06-6.57
		c-1.24-3.48-1.13-7.01,0.18-10.41c0.98-2.53,2.08-5.07,3.54-7.34c2.28-3.55,4.79-6.96,7.43-10.26c2.98-3.72,6.16-7.3,9.37-10.82
		c1.46-1.6,3.08-3.14,4.87-4.34c4.63-3.11,10.32-1.3,12.53,3.86c1.14,2.67,1.32,5.55,1.51,8.41c0.13,2.04,0.11,4.09,0.26,6.13
		c0.08,1.06,0.39,2.11,0.58,3.05c1.64,0.92,3.14,0.53,4.59,0.32c11.12-1.6,20.85-6.24,29.19-13.69
		c11.62-10.39,18.54-23.33,20.84-38.78c4.8-32.27-16.7-64.61-51.29-71.2c-33.09-6.31-65.5,15.64-72.78,47.81
		c-0.84,3.7-1.07,7.54-1.66,11.31c-0.4,2.55-0.69,5.15-1.49,7.59c-1.46,4.46-4.25,6.26-8.93,6.26c-0.68,0-1.37-0.02-2.04-0.09
		c-6.32-0.66-9.86-4.36-10.14-10.72c-0.26-5.9,0.68-11.71,1.92-17.43c6.92-32.03,30.6-56.89,62.2-65.18
		c47.83-12.56,94.49,17.74,105.09,63.58c10.22,44.23-15.89,88.02-59.46,101.01c-4.17,1.24-8.45,2.16-12.67,3.25
		C583.19,481.34,582.47,481.69,581.24,482.15z"/>
	<path class="st0" d="M801.89,591.11c3.41,0,6.81-0.02,10.22,0.01c2.35,0.01,4.56,0.62,6.7,1.6c5.65,2.56,6.51,10.15,1.8,13.86
		c-3.45,2.72-7.25,4.84-11.21,6.66c-1.15,0.53-2.68,0.5-4,0.37c-2.32-0.22-4.61-0.32-6.92,0.03c-2.52,0.38-4.84-0.12-7.03-1.49
		c-1.84-1.16-3.81-2.11-5.67-3.24c-1.16-0.71-2.21-1.58-3.32-2.37c-4.02-2.86-4-10.66,1.36-13.49c2.2-1.16,4.53-1.89,7.03-1.92
		C794.53,591.08,798.21,591.11,801.89,591.11z"/>
	<path class="st0" d="M891.93,602.23c-0.3,0.5-0.39,0.79-0.58,0.94c-4.15,3.08-8.3,6.15-12.46,9.22c-1.5,1.11-3.19,1.34-5.02,1.24
		c-3.25-0.18-6.52-0.2-9.78-0.33c-2.31-0.09-4.65-0.03-6.91-0.43c-5.82-1.02-9.21-4.23-9.02-11.1c0.16-5.53,2.23-9.27,8.55-10.21
		c6.02-0.9,12.19-0.85,18.29-1.05c2.08-0.07,3.9,1.06,5.66,2.13C883.7,594.51,888.9,598.91,891.93,602.23z"/>
	<path class="st0" d="M710.74,601.33c3.29-2.71,6.16-5.22,9.19-7.53c3.13-2.39,6.77-3.51,10.72-3.35c4.77,0.2,9.53,0.44,14.29,0.77
		c2.2,0.15,4.26,0.88,6.16,2.03c4.65,2.82,5.06,9.52,1.42,12.68c-0.92,0.8-1.86,1.61-2.88,2.28c-1.71,1.11-3.56,2.03-5.25,3.17
		c-2.98,2-6.12,2.7-9.7,2.09c-1.7-0.29-3.53-0.01-5.28,0.18c-2.43,0.27-4.54-0.24-6.5-1.76
		C718.81,608.74,714.89,605.4,710.74,601.33z"/>
	<path class="st0" d="M572.64,830.83c-25.51,0-51.02,0-76.53,0c-2.59,0-5.19,0.06-7.77-0.11c-1.89-0.12-3.79-0.46-5.62-0.94
		c-1.15-0.31-2.3-0.92-3.25-1.66c-5.69-4.36-4.24-15.48,2.35-18.24c2.82-1.18,5.84-1.28,8.83-1.51c1.22-0.09,2.45-0.03,3.68-0.03
		c25.37,0,50.75-0.01,76.12,0c14.32,0.01,28.65,0.11,42.97,0.11c12.55,0,25.1-0.13,37.65-0.11c2.99,0,6,0.21,8.96,0.63
		c3.51,0.49,6.64,1.95,8.09,5.46c1.58,3.82,1.6,7.72-0.43,11.45c-1.11,2.03-2.98,3.23-5.12,3.82c-1.95,0.54-4,0.9-6.02,1
		c-3.4,0.17-6.82,0.09-10.23,0.09c-24.56,0-49.11,0-73.67,0C572.64,830.8,572.64,830.81,572.64,830.83z"/>
	<path class="st0" d="M572.63,854.41c13.36,0,26.72,0.03,40.08-0.01c13.09-0.04,26.17-0.17,39.26-0.19c2.58,0,5.17,0.23,7.74,0.56
		c1.46,0.19,2.96,0.61,4.28,1.26c4.28,2.09,5.27,5.92,5.14,10.28c-0.12,4.01-1.63,7.21-5.51,8.74c-1.87,0.74-3.92,1.13-5.93,1.41
		c-1.74,0.25-3.54,0.17-5.31,0.17c-51.54-0.08-103.07-0.17-154.61-0.26c-1.91,0-3.82-0.03-5.72-0.12
		c-5.33-0.26-9.54-2.83-13.35-6.36c-3.81-3.53-3.96-11.69,3.28-14.25c3-1.06,6.11-1.39,9.25-1.42c4.5-0.04,9,0.09,13.5,0.09
		c22.63,0.01,45.26,0.01,67.9,0.01C572.63,854.34,572.63,854.37,572.63,854.41z"/>
</g>
</svg>
