<?xml version="1.0" encoding="utf-8"?>
<!-- Generator: Adobe Illustrator 26.0.3, SVG Export Plug-In . SVG Version: 6.00 Build 0)  -->
<svg version="1.1" id="Layer_1" xmlns="http://www.w3.org/2000/svg" xmlns:xlink="http://www.w3.org/1999/xlink" x="0px" y="0px"
	 viewBox="0 0 1133.86 1133.86" style="enable-background:new 0 0 1133.86 1133.86;" xml:space="preserve">
<style type="text/css">
	.st0{fill:#185670;}
</style>
<g>
	<path class="st0" d="M727.74,288.77c0.83-1.62,1.48-2.83,2.07-4.07c23.53-49.48,67.43-84.54,120.68-96.2
		c14.93-3.27,30.07-4.56,45.34-3.76c80,4.2,143.51,60.42,160.93,133.63c3.43,14.41,5.05,29.06,4.67,43.86
		c-1.97,75.83-50.4,136.76-115.17,160.09c-5.42,1.95-5.16,1.16-5.14,7.44c0.21,59.61,0.49,119.21,0.57,178.82
		c0.08,60.53-0.04,121.06-0.12,181.59c-0.01,4.29-0.23,8.61-0.77,12.87c-1.21,9.52-5.04,12.83-14.27,13.88
		c-4.72,0.54-9.51,0.58-14.27,0.59c-19.67,0.06-39.34,0.03-59.01,0.03c-32.73,0-65.47-0.01-98.2,0
		c-182.1,0.05-364.21,0.12-546.31,0.16c-12.29,0-24.59-0.07-36.88-0.19c-3.38-0.03-6.77-0.15-10.12-0.54
		c-10.92-1.27-12.76-5.91-14.07-13.05c-0.25-1.35-0.36-2.74-0.41-4.12c-0.12-3.22-0.22-6.45-0.23-9.67
		c-0.03-8.91-0.01-17.82-0.01-26.73c-0.03-163.61-0.06-327.23-0.08-490.84c0-19.05,0.02-38.1,0.1-57.15c0.02-4.9,0-9.81,0.97-14.68
		c1.2-5.99,4.66-9.59,10.59-10.66c3.46-0.63,7-0.91,10.52-1.14c2.91-0.19,5.84-0.09,8.76-0.09c181.03-0.02,362.06-0.03,543.09-0.04
		C723.11,288.77,725.25,288.77,727.74,288.77z M181.16,322.68c-0.99,2.79-0.67,5.12-0.67,7.39c-0.02,182.18-0.01,364.36-0.01,546.55
		c0,1.38-0.06,2.77,0.04,4.15c0.08,1.03,0.38,2.04,0.58,3.07c2.34,0.57,4.5,0.35,6.63,0.35c237.86,0.01,475.73,0.01,713.59,0.01
		c1.54,0,3.08,0.05,4.61-0.04c0.87-0.05,1.73-0.31,2.87-0.54c0.06-2,0.15-3.82,0.15-5.63c-0.02-98.46-0.04-196.93-0.08-295.39
		c0-14.9-0.04-29.8-0.09-44.7c-0.01-1.96,0.31-3.99-0.76-6.12c-6.38-0.49-12.74,1.09-19.16,0.74c-6.59-0.35-13.22-0.34-19.78-1.02
		c-6.4-0.66-12.79-1.73-19.07-3.11c-6.28-1.38-12.53-3.1-18.62-5.17c-6.09-2.07-12.09-4.5-17.91-7.25
		c-5.96-2.81-11.8-5.96-17.41-9.41c-5.48-3.37-10.79-7.09-15.86-11.06c-5.07-3.97-9.95-8.24-14.54-12.75
		c-4.7-4.62-9.18-9.52-13.34-14.63c-4.07-4.99-7.85-10.25-11.33-15.67c-3.48-5.41-6.69-11.04-9.54-16.81
		c-2.92-5.91-5.51-12-7.76-18.2c-2.19-6.05-4.02-12.26-5.52-18.51c-1.5-6.26-2.68-12.62-3.46-19.01
		c-0.78-6.39-1.03-12.85-1.25-19.29c-0.23-6.6-0.02-13.21,0.85-19.77c0.84-6.34,1.74-12.68,2.61-19.05c-1.79-0.96-3.5-0.7-5.15-0.7
		c-6.76,0.01-13.52,0.14-20.28,0.14c-70.84,0.06-141.67,0.14-212.51,0.15c-92.35,0.03-184.7,0.01-277.05,0.01
		c-3.07,0-6.15-0.04-9.22,0.15C188.93,321.82,185.13,322.29,181.16,322.68z M747.58,358.65c0.51,80.27,66.03,139.61,139.7,139.62
		c76.39,0.01,139.94-62.39,139.88-139.83c-0.05-77.37-63.64-139.75-140.09-139.62C813.39,218.94,747.98,278.38,747.58,358.65z"/>
	<path class="st0" d="M305.15,598.75c-1.34-1.92-2.38-3.43-3.43-4.92c-7.94-11.23-14.35-23.21-18.32-36.46
		c-3.08-10.29-4.17-20.78-3.23-31.42c1.07-11.99,5.03-23.08,11.78-33.06c13.05-19.27,30.66-32.16,53.7-36.69
		c26.38-5.18,49.98,1.12,70.41,18.62c10.55,9.03,18.62,19.94,23.5,33.07c4.38,11.78,5.36,23.88,3.67,36.27
		c-2.12,15.51-8.25,29.48-16.46,42.63c-1.79,2.86-3.77,5.6-5.65,8.41c-0.58,0.87-1.11,1.79-1.78,2.88c0.9,0.77,1.63,1.53,2.48,2.11
		c4.82,3.29,9.73,6.45,14.5,9.81c12.77,9.01,24.02,19.61,33.27,32.25c11.72,16.03,19.07,33.88,22.32,53.46
		c1.06,6.37,1.67,12.77,1.91,19.23c0.6,15.97,0.55,31.94,0.37,47.91c-0.12,10.29,0.18,20.58,0.15,30.87
		c-0.01,3.21-0.22,6.46-0.75,9.62c-1.32,7.88-5.92,12.58-13.78,14.12c-2.84,0.55-5.78,0.83-8.68,0.84
		c-28.73,0.02-57.46-0.07-86.19-0.07c-41.79,0-83.58,0.06-125.37,0.09c-3.07,0-6.15,0.12-9.22-0.04c-2.44-0.13-4.91-0.4-7.29-0.96
		c-7.16-1.71-11.35-6.35-12.79-13.53c-0.79-3.94-0.81-7.92-0.71-11.93c0.26-10.75,0.5-21.49,0.58-32.24
		c0.03-4.91-0.46-9.82-0.53-14.73c-0.13-9.21-0.56-18.45-0.1-27.63c1.01-19.8,5.3-38.88,14.09-56.81
		c9.96-20.32,24.6-36.61,42.91-49.69c4.74-3.39,9.78-6.36,14.68-9.52C302.36,600.49,303.52,599.77,305.15,598.75z M461.27,784.24
		c0.14-1.24,0.32-2.13,0.32-3.03c0-21.35,0.11-42.7-0.1-64.05c-0.1-9.86-1.82-19.54-4.89-28.96c-15-45.98-60-72.97-105.05-68.24
		c-15.24,1.6-29.46,6.09-42.43,14.18c-22.47,14-36.9,33.82-42.57,59.83c-2.49,11.44-3.67,23.06-4.12,34.72
		c-0.69,17.65-0.89,35.32-1.26,52.98c-0.02,0.86,0.25,1.73,0.39,2.65c0.85,0.14,1.43,0.32,2.02,0.32
		c65.15,0.01,130.31,0.02,195.46,0C459.64,784.63,460.23,784.43,461.27,784.24z M361.8,487.08c-26.98-0.03-49.9,22.39-49.8,49.99
		c0.1,27.55,23.05,49.85,50.06,49.75c26.63-0.1,49.92-22.16,49.82-50.01C411.78,509.44,389,486.88,361.8,487.08z"/>
	<path class="st0" d="M701.87,685.69c-44.4,0-88.79,0-133.19,0c-3.84,0-7.7,0.1-11.44-0.95c-1.76-0.49-3.54-1.06-5.17-1.86
		c-3.54-1.74-5.59-4.74-6.36-8.55c-0.65-3.19-0.62-6.44,0.02-9.62c0.83-4.17,3.14-7.36,7.08-9.06c2.09-0.9,4.35-1.6,6.6-1.87
		c3.8-0.46,7.65-0.69,11.48-0.69c72.66,0.01,145.32,0.07,217.98,0.1c14.59,0.01,29.19-0.13,43.78-0.1c3.68,0.01,7.37,0.29,11.02,0.7
		c1.96,0.22,3.91,0.81,5.77,1.49c4.38,1.6,7.1,4.79,8.04,9.33c0.72,3.48,0.68,7-0.27,10.48c-1.13,4.17-3.67,7.16-7.68,8.55
		c-2.87,0.99-5.94,1.49-8.96,1.89c-2.27,0.31-4.6,0.15-6.9,0.15C789.74,685.69,745.8,685.69,701.87,685.69z"/>
	<path class="st0" d="M701.87,570.45c35.5,0,71,0.01,106.5,0c8.3,0,16.6-0.1,24.89-0.07c3.07,0.01,6.17,0.02,9.2,0.4
		c2.56,0.32,5.14,0.95,7.56,1.85c3.85,1.42,6.25,4.35,7.32,8.31c0.98,3.63,0.98,7.31,0.13,10.94c-0.97,4.16-3.59,7.07-7.5,8.76
		c-2.84,1.22-5.84,1.92-8.94,2.04c-2.92,0.11-5.84,0.17-8.76,0.17c-62.55-0.02-125.09-0.06-187.64-0.08
		c-25.36-0.01-50.71,0.07-76.07,0.07c-3.99,0-8.01,0.16-11.9-1.01c-1.46-0.44-2.95-0.9-4.31-1.57c-3.7-1.82-5.86-4.89-6.66-8.88
		c-0.61-3.03-0.64-6.11-0.13-9.17c0.71-4.24,2.98-7.36,6.81-9.26c2.64-1.31,5.47-2.04,8.42-2.19c3.22-0.16,6.45-0.28,9.67-0.28
		C614.28,570.45,658.08,570.45,701.87,570.45z"/>
	<path class="st0" d="M622.1,487.67c16.59,0,33.17,0,49.76,0c3.07,0,6.15,0.02,9.12,0.97c1.17,0.37,2.37,0.68,3.48,1.18
		c8.04,3.63,10.32,12.78,4.63,19.53c-5.03,5.97-11.46,9.61-19.4,10.29c-8.42,0.72-16.86,1.12-25.31,0.87
		c-26.1-0.77-52.21-0.42-78.31-0.51c-3.53-0.01-7.08-0.01-10.47-1.22c-1.3-0.46-2.61-0.93-3.81-1.59
		c-6.26-3.45-8.51-11.03-4.67-17.03c4.05-6.33,9.88-10.44,17.43-11.68c2.41-0.4,4.89-0.46,7.35-0.5
		c16.74-0.24,33.47-0.44,50.21-0.64C622.1,487.45,622.1,487.56,622.1,487.67z"/>
	<path class="st0" d="M577.45,808.29c-4.36-5.31-8.47-10.07-12.29-15.06c-3.64-4.74-3.86-6.5-0.48-12.09
		c2.26-3.74,5.43-6.6,9.13-8.93c3.24-2.04,6.25-2.11,9.35,0.3c2.69,2.09,5.07,4.44,7.1,7.17c2.49,3.35,2.63,6.76,0.53,10.31
		c-0.39,0.66-0.73,1.36-1.18,1.97C585.69,797.26,581.74,802.53,577.45,808.29z"/>
	<path class="st0" d="M279.14,355.85c3.59,2.15,10.27,7.53,12.35,9.7c2.67,2.77,3.08,5.86,1.6,9.28c-0.48,1.12-1.06,2.22-1.78,3.2
		c-3.9,5.28-7.85,10.52-11.82,15.83c-0.56-0.33-1.04-0.46-1.3-0.78c-3.42-4.12-6.83-8.25-10.18-12.42
		c-1.05-1.31-1.97-2.72-2.84-4.16c-1.3-2.14-1.29-4.39-0.1-6.55c0.73-1.33,1.58-2.64,2.59-3.76
		C271.14,362.35,275.21,359.13,279.14,355.85z"/>
	<path class="st0" d="M710.38,801.09c-3.76-3.22-7.3-6.15-10.71-9.21c-1.24-1.11-2.29-2.48-3.26-3.85c-1.85-2.62-2.02-5.4-0.32-8.2
		c0.56-0.92,1.11-1.84,1.77-2.69c3.59-4.6,7.2-9.17,10.82-13.74c0.16-0.21,0.5-0.27,0.76-0.4c0.27,0.13,0.63,0.19,0.79,0.4
		c3.62,4.57,7.26,9.12,10.78,13.77c1.19,1.58,2.19,3.35,2.98,5.16c1.2,2.74,0.84,5.42-1.17,7.73c-1,1.16-2.05,2.3-3.21,3.29
		C716.72,795.87,713.75,798.29,710.38,801.09z"/>
	<path class="st0" d="M642.96,769.93c3.53,2.87,7.2,5.65,10.62,8.72c1.68,1.51,2.98,3.48,4.25,5.38c1.09,1.64,1.06,3.49,0.15,5.27
		c-0.42,0.82-0.73,1.72-1.27,2.45c-3.81,5.17-7.67,10.31-11.44,15.36c-0.59-0.14-0.97-0.11-1.13-0.28
		c-3.64-3.74-7.28-7.49-10.87-11.28c-1.05-1.11-1.98-2.34-2.92-3.55c-1.92-2.46-1.98-5.07-0.53-7.75c0.51-0.94,1.07-1.87,1.69-2.74
		C633.45,778.74,639.45,772.7,642.96,769.93z"/>
	<path class="st0" d="M327.86,393.56c-1.08-1.36-2.2-2.79-3.34-4.2c-2.22-2.74-4.49-5.43-6.66-8.21c-1.13-1.44-2.14-2.99-3.08-4.56
		c-1.75-2.94-1.47-5.85,0.44-8.62c0.61-0.88,1.26-1.74,1.99-2.52c1.04-1.12,2.13-2.21,3.25-3.24c2.24-2.07,4.53-4.1,7.03-6.36
		c3.94,3.35,7.86,6.52,11.56,9.93c1.43,1.31,2.45,3.11,3.49,4.78c1.04,1.69,0.99,3.52-0.02,5.25c-0.77,1.32-1.52,2.67-2.48,3.85
		c-3.67,4.51-7.42,8.97-11.15,13.43C328.73,393.28,328.38,393.33,327.86,393.56z"/>
	<path class="st0" d="M214.44,371.73c3.34-3.69,6.36-7.75,10.04-11.24c0.22-0.21,0.45-0.42,0.69-0.61c4.8-4.08,7.68-4.26,12.61-0.27
		c4.65,3.76,9.1,7.78,13.62,11.71c0.19,0.17,0.23,0.52,0.47,1.09c-5.17,3.92-10.3,8.06-15.7,11.82c-4.42,3.07-7.56,2.64-11.69-0.83
		C222.09,381.38,216.64,375.08,214.44,371.73z"/>
	<path class="st0" d="M829.68,322.3c-1.22-0.53-2.17-0.97-3.15-1.35c-2.71-1.05-3.65-3.09-3.35-5.86c0.07-0.61,0.09-1.23,0.24-1.82
		c0.24-0.95,0.8-1.68,1.85-1.78c1.07-0.1,2.14-0.16,3.22-0.16c37.96-0.01,75.92-0.01,113.87,0c1.36,0,2.72,0.16,4.07,0.24
		c1.17,2.41,0.73,4.72,0.56,6.97c-0.1,1.32-1.02,2.22-2.32,2.58c-1.03,0.28-2.09,0.46-3.4,0.73c-0.17,0.99-0.44,1.99-0.51,3.01
		c-0.09,1.38-0.03,2.76-0.03,4.15c0,32.42,0.01,64.83-0.02,97.25c0,2.14-0.16,4.3-0.51,6.4c-1.15,6.8-5.7,9.59-11.27,10.4
		c-1.36,0.2-2.76,0.18-4.14,0.18c-26.43,0.01-52.86,0.01-79.3,0.01c-2.31,0-4.59-0.09-6.82-0.87c-4.62-1.6-7.49-4.73-8.34-9.53
		c-0.37-2.1-0.45-4.27-0.45-6.41c-0.05-32.88-0.05-65.75-0.08-98.63C829.83,325.99,829.74,324.17,829.68,322.3z M921.9,377.29
		c0-12.59,0.02-25.18-0.02-37.78c-0.01-1.67-0.08-3.4-0.5-5c-0.61-2.33-2.45-3.61-4.71-3.72c-2.45-0.12-4.58,1.16-5.3,3.57
		c-0.48,1.59-0.69,3.31-0.69,4.98c-0.04,25.18-0.04,50.37-0.01,75.55c0,1.52,0.17,3.08,0.55,4.54c0.74,2.86,2.63,4.26,5.28,4.19
		c2.61-0.07,4.58-1.65,5.13-4.43c0.29-1.49,0.26-3.05,0.26-4.58C921.9,402.17,921.9,389.73,921.9,377.29z M879.86,377.39
		c-0.01,0-0.03,0-0.04,0c0,12.28,0,24.57,0,36.85c0,1.38-0.05,2.77,0.09,4.14c0.32,3.23,2.29,5.07,5.39,5.17
		c2.8,0.09,4.86-1.61,5.32-4.67c0.27-1.81,0.28-3.67,0.28-5.51c0.03-11.67,0.02-23.34,0.03-35.01c0.02-12.74,0.06-25.49,0.06-38.23
		c0-1.53-0.06-3.08-0.29-4.59c-0.48-3.04-2.78-4.89-5.78-4.8c-2.44,0.07-4.34,1.85-4.82,4.74c-0.25,1.5-0.23,3.06-0.23,4.59
		C879.85,352.52,879.86,364.96,879.86,377.39z M859.93,377.39c0-11.98,0-23.96,0-35.94c0-1.38,0.05-2.77-0.07-4.14
		c-0.09-1.06-0.28-2.15-0.66-3.14c-0.77-2.05-2.37-3.17-4.53-3.38c-2.22-0.22-4.17,0.98-5.25,3.02c-0.99,1.87-0.75,3.89-0.76,5.87
		c-0.03,21.35-0.03,42.69-0.04,64.04c0,3.99-0.02,7.99,0.07,11.98c0.03,1.36,0.2,2.77,0.61,4.06c0.74,2.34,3.06,3.62,5.86,3.48
		c2.34-0.11,3.85-1.35,4.37-3.96c0.33-1.64,0.37-3.35,0.38-5.03C859.94,401.96,859.93,389.68,859.93,377.39z"/>
	<path class="st0" d="M862.89,288.61c0.32-1.27,0.6-2.27,0.82-3.29c0.91-4.15,2.72-5.79,6.97-5.85c7.22-0.11,14.43-0.08,21.65-0.09
		c2.61,0,5.22-0.03,7.83,0.08c4.04,0.17,5.78,1.71,6.65,5.63c0.23,1.03,0.47,2.05,0.76,3.32c1.28,0.14,2.45,0.37,3.63,0.38
		c5.53,0.05,11.06-0.03,16.58,0.09c2.29,0.05,4.62,0.24,6.84,0.75c5.69,1.3,9.38,4.97,11.42,10.35c0.54,1.44,0.76,2.96,0.28,4.66
		c-0.72,0.16-1.44,0.41-2.18,0.46c-1.22,0.09-2.46,0.05-3.68,0.05c-36.85,0-73.7,0.01-110.56-0.01c-1.81,0-3.67,0.24-5.5-0.45
		c-0.78-2.09-0.31-3.99,0.57-5.8c3.08-6.4,8.23-9.8,15.3-10.01c5.98-0.18,11.98-0.05,17.96-0.08
		C859.73,288.79,861.24,288.68,862.89,288.61z"/>
</g>
</svg>
