<?xml version="1.0" encoding="utf-8"?>
<!-- Generator: Adobe Illustrator 26.0.3, SVG Export Plug-In . SVG Version: 6.00 Build 0)  -->
<svg version="1.1" id="Layer_1" xmlns="http://www.w3.org/2000/svg" xmlns:xlink="http://www.w3.org/1999/xlink" x="0px" y="0px"
	 viewBox="0 0 1133.86 1133.86" style="enable-background:new 0 0 1133.86 1133.86;" xml:space="preserve">
<style type="text/css">
	.st0{fill:#185670;}
</style>
<g>
	<path class="st0" d="M254.07,612.74c-0.45-3.47-0.85-6.79-1.32-10.1c-1.18-8.39-1.97-16.82-2.59-25.27
		c-0.75-10.22-0.82-20.44-0.68-30.67c0.2-13.75,1.41-27.42,3.29-41.04c4.56-33.07,13.64-64.86,27.43-95.23
		c29.05-63.96,72.82-115.32,132.36-152.89c29.6-18.68,61.55-32.22,95.15-41.91c16.45-4.74,33.18-8.2,50.17-10.3
		c8.26-1.02,16.58-1.56,24.89-2.1c5.98-0.39,11.98-0.62,17.97-0.57c31.9,0.24,63.17,4.87,93.78,13.85
		c40.14,11.77,77.65,29.09,111.78,53.43c38.17,27.21,68.91,61.25,93.12,101.29c13.2,21.82,24.06,44.76,33.1,68.58
		c0.72,1.89,1.48,3.77,2.28,5.82c1.05-0.16,1.91-0.18,2.7-0.42c4.18-1.3,8.36-1.23,12.52,0c2.38,0.7,4.69,1.62,7.03,2.44
		c1.52,0.53,3.04,1.04,4.55,1.59c1.49,0.54,2.88,0.33,4.19-0.51c1.73-1.1,3.44-2.21,5.15-3.34c6.83-4.51,13.66-9.01,20.46-13.57
		c1.69-1.14,3.34-2.37,4.85-3.74c4.02-3.66,5.78-8.33,5.76-13.71c0-0.44,0-0.88-0.06-1.31c-0.9-6.76,1.69-12.29,6.09-17.16
		c2.98-3.29,6.48-5.88,10.48-7.8c3.34-1.6,6.82-2.54,10.56-2.52c4.1,0.03,8.17,0.09,12.18,1.14c12.54,3.29,21.52,14.5,22.01,27.46
		c0.22,5.95-0.68,11.65-3.38,17c-3.41,6.78-8.64,11.38-16.14,13.01c-5.28,1.15-10.61,2.01-15.92,3.03c-1.37,0.26-2.6,0.04-3.75-0.74
		c-0.6-0.41-1.19-0.85-1.83-1.21c-2.59-1.46-5.29-1.67-7.99-0.42c-1.58,0.73-3.11,1.62-4.55,2.61c-9.15,6.3-18.27,12.64-27.39,18.98
		c-0.72,0.5-1.42,1.04-2.15,1.51c-2.01,1.3-2.87,3.15-2.95,5.53c-0.09,2.62-0.27,5.25-0.68,7.84c-1.36,8.66-5.76,15.55-12.77,20.71
		c-2.93,2.16-6.13,3.97-9.22,5.91c-1.73,1.08-3.49,2.11-5.23,3.16c-0.55,3.5-0.15,6.85,0.18,10.17c1.61,16.02,2.26,32.08,1.24,48.16
		c-0.76,11.95-2.09,23.85-3.95,35.7c-3.11,19.78-7.3,39.33-12.5,58.66c-1.71,6.36-3.97,12.53-6.6,18.55
		c-4.04,9.23-8.18,18.42-12.26,27.64c-5.29,11.94-12.14,22.98-19.33,33.83c-6.47,9.75-13.21,19.3-20.44,28.49
		c-1.08,1.38-2.17,2.76-3.14,4.22c-2.35,3.56-2.14,6,0.7,9.05c0.4,0.43,0.83,0.82,1.26,1.22c22.32,20.46,43.34,42.23,64.29,64.06
		c9.82,10.23,19.7,20.4,29.55,30.6c0.91,0.95,1.83,1.89,2.74,2.84c7.32,7.57,8.91,16.52,6.12,26.37
		c-1.66,5.86-4.82,10.97-9.28,15.16c-7.91,7.43-17.27,9.35-27.64,6.88c-3.6-0.86-6.8-2.69-9.69-4.95c-2.53-1.98-4.98-4.07-7.31-6.28
		c-3.39-3.22-6.66-6.57-9.95-9.9c-18.37-18.63-36.73-37.28-55.11-55.91c-8.42-8.53-16.88-17.03-25.32-25.53
		c-0.93-0.93-1.94-1.78-2.83-2.74c-2.04-2.19-5.05-2.02-7.24-0.66c-1.23,0.76-2.3,1.79-3.42,2.73
		c-18.14,15.16-37.99,27.71-58.91,38.63c-2.2,1.15-4.45,2.21-6.73,3.2c-12.05,5.26-24.14,10.42-36.16,15.74
		c-6.88,3.05-14.1,4.69-21.44,6.07c-15.93,3-31.86,6-47.75,9.23c-14.67,2.98-29.46,4.33-44.42,4.3
		c-14.49-0.03-28.93-0.87-43.34-2.19c-9.9-0.9-19.65-2.83-29.35-5c-12.26-2.74-24.58-5.19-36.63-8.76
		c-11.65-3.45-22.99-7.68-33.93-12.98c-8.02-3.88-16.07-7.7-24.07-11.64c-11.44-5.64-22.18-12.36-32.22-20.28
		c-6.99-5.52-14.35-10.58-21.54-15.85c-5.54-4.07-11.07-8.14-16.58-12.24c-4.23-3.15-8.18-6.65-11.61-10.66
		c-11.71-13.64-23.52-27.2-34.95-41.07c-10.62-12.89-19.25-27.16-27.57-41.62c-5.78-10.04-10.71-20.43-14.52-31.36
		c-1.1-3.17-2.36-6.29-3.62-9.4c-0.49-1.21-1.08-2.4-1.76-3.52c-1.51-2.44-3.72-3.65-6.62-3.47c-0.73,0.04-1.46,0.1-2.19,0.17
		c-12.61,1.12-21.62-4.52-28.07-14.94c-0.38-0.62-0.73-1.28-0.96-1.97c-1.08-3.23-3.55-5-6.61-5.86c-2.94-0.82-5.97-1.4-9-1.83
		c-8.25-1.15-16.52-2.12-24.77-3.25c-3.46-0.47-6,0.73-7.72,3.73c-0.44,0.76-0.81,1.55-1.24,2.32c-3.83,6.76-9.77,10.3-17.36,11.13
		c-4.67,0.51-9.34,0.12-14-0.37c-3.05-0.32-6.11-0.5-9.18-0.63c-3.04-0.12-5.81,0.8-8.07,2.84c-5.64,5.09-11.22,10.25-16.82,15.38
		c-1.48,1.35-2.22,3.03-2.29,5.04c-0.13,3.94-0.26,7.88-0.48,11.82c-0.16,2.91-0.03,5.93-0.79,8.69
		c-2.96,10.84-10.37,17.51-21.02,20.23c-10.55,2.69-20.37,0.29-28.93-6.36c-8.54-6.63-11.81-15.66-10.94-26.31
		c0.31-3.82,1.25-7.48,2.77-11c5.8-13.43,17.87-20.41,32.37-18.71c2.18,0.26,4.35,0.52,6.54,0.69c3.5,0.27,6.73-0.67,9.44-2.84
		c2.5-2,4.87-4.2,7.05-6.55c3.08-3.33,6.06-6.7,9.64-9.54c3.62-2.87,5.44-6.77,5.61-11.43c0.11-2.91,0.17-5.84,0.53-8.73
		c0.94-7.52,4.67-13.48,10.81-17.82c11.85-8.39,29.43-9.18,42.18,3.34c1.85,1.81,3.43,4.02,4.68,6.29c2.31,4.2,5.64,6.52,10.39,7.02
		c7.26,0.76,14.51,1.64,21.77,2.44c3.19,0.35,6.4,0.62,9.6,0.92c2.79,0.26,5.27-0.56,7.18-2.57c4.87-5.12,10.62-9.15,16.24-13.35
		C252.6,614.07,253.12,613.56,254.07,612.74z M601.08,844.93c19.69-0.35,24.12-0.26,41.59-2.2c12.23-1.35,24.3-3.6,35.93-7.62
		c19.2-6.62,38.09-14.05,56.38-22.92c15.98-7.75,30.95-17.12,44.58-28.5c8.41-7.02,16.43-14.5,24.49-21.93
		c6.14-5.65,11.64-11.91,16.62-18.62c1.83-2.46,3.74-4.88,5.76-7.18c10.35-11.82,18.79-24.96,26.75-38.44
		c6.33-10.72,11.68-21.89,15.88-33.62c3.88-10.86,7.97-21.65,11.8-32.53c1.45-4.12,2.84-8.35,3.5-12.64
		c1.5-9.81,2.61-19.68,3.75-29.55c0.87-7.54,1.58-15.11,2.3-22.67c0.43-4.5,1.15-9.03,0.99-13.52c-0.28-8.02-0.96-16.04-1.79-24.03
		c-1.17-11.18-2.76-22.32-4.98-33.35c-0.89-4.44-1.95-8.84-2.76-13.29c-0.76-4.14-3.16-6.42-7.22-7.13
		c-1.44-0.25-2.86-0.57-4.28-0.91c-7.24-1.74-14.46-3.54-21.72-5.22c-3.27-0.75-6.57-1.39-9.97-1.28c-2.02,0.07-3.7,0.72-5.12,2.12
		c-0.62,0.61-1.21,1.27-1.79,1.92c-4.76,5.42-10.25,9.99-16.22,13.99c-4.79,3.21-9.98,5.58-15.71,6.39
		c-4.91,0.69-9.87,0.99-14.87,0.68c-5.25-0.33-10.52-0.28-15.77-0.55c-3.33-0.17-5.98,0.73-7.93,3.6c-1.15,1.68-2.65,3.12-3.91,4.73
		c-7.3,9.32-14.75,18.52-21.82,28.01c-15.89,21.33-31.75,42.67-48.98,62.96c-9.64,11.36-18.96,22.99-28.51,34.44
		c-3.15,3.78-3.98,7.75-1.58,12.13c1.23,2.25,1.76,4.61,1.9,7.12c0.68,11.96,1.39,23.92,1.41,35.91c0,3.15-0.84,6.08-2.28,8.82
		c-4.17,7.95-9.31,15.2-15.94,21.31c-6.22,5.73-13.36,9.91-21.42,12.47c-10.21,3.24-20.67,3.99-31.21,2.48
		c-23.48-3.36-42.37-21.58-48.64-40.2c-2.88-8.56-4-17.33-3.43-26.32c0.15-2.33,0.27-4.67,0.52-6.99c0.41-3.92-1.11-6.81-4.48-8.79
		c-0.63-0.37-1.22-0.81-1.85-1.18c-5.81-3.41-11.17-7.46-16.55-11.49c-11.23-8.41-22.49-16.77-33.84-25.01
		c-8.04-5.84-16.25-11.43-24.34-17.19c-3.24-2.3-6.62-2.9-10.34-1.42c-1.36,0.54-2.71,1.1-4.09,1.57
		c-4.28,1.46-8.53,3.04-12.88,4.27c-8.3,2.35-16.71,2.44-25.17,0.8c-5.78-1.12-11.28-3.05-16.5-5.72c-2.45-1.26-4.69-1.37-7.03,0.06
		c-3.24,1.97-6.69,3.65-9.7,5.92c-14.58,11.01-29.03,22.18-43.53,33.29c-0.93,0.71-1.87,1.41-2.71,2.22
		c-2.41,2.33-3.25,4.91-1.98,8.3c2.96,7.93,5.59,15.99,8.44,23.96c3.79,10.6,8.06,21,13.92,30.66c3.49,5.75,7.01,11.47,10.49,17.21
		c5.99,9.89,12.7,19.27,20.05,28.2c12.2,14.83,25.32,28.72,40.69,40.35c1.51,1.15,2.99,2.35,4.41,3.61
		c11.78,10.41,24.95,18.81,38.49,26.67c7.97,4.62,16.17,8.79,24.76,12.14c9.11,3.56,18.26,7.05,27.38,10.58
		c16.89,6.55,34.4,10.35,52.44,11.52C575.95,844.14,588.52,844.41,601.08,844.93z M859.14,424.66c0.55-1.58-0.32-2.52-0.85-3.5
		c-15.72-28.8-34.92-54.97-58.68-77.7c-28.05-26.84-60.42-46.79-96.64-60.6c-29.44-11.22-59.88-17.74-91.37-19.14
		c-18.9-0.84-37.69,0.48-56.34,3.55c-22.13,3.65-43.57,9.8-64.37,18.18c-35.41,14.26-67,34.41-94.04,61.43
		c-33.78,33.75-57.8,73.59-73.15,118.7c-5.57,16.35-9.5,33.12-11.52,50.29c-0.89,7.54-1.61,15.11-2.08,22.68
		c-0.84,13.44-0.25,26.87,1.21,40.26c0.09,0.83-0.01,1.78,1.12,2.27c2-0.19,3.76-1.19,5.41-2.4c10.37-7.6,20.73-15.22,31.09-22.84
		c0.47-0.35,0.9-0.74,1.34-1.13c4.22-3.69,6.03-8.22,4.43-13.73c-0.88-3.01-1-6.05-0.83-9.11c0.15-2.77,0.45-5.53,0.7-8.29
		c1.17-12.68,6.02-23.68,15.07-32.74c1.45-1.45,2.86-2.93,4.35-4.33c7.38-6.93,15.77-12.02,25.8-14.16c1.57-0.33,3.1-0.83,4.66-1.22
		c7.82-1.96,15.63-1.97,23.37,0.39c3.91,1.19,7.81,2.44,11.65,3.82c8.57,3.08,15.88,8.11,21.74,15.05c3.1,3.67,5.87,7.65,8.5,11.67
		c4.35,6.63,6.36,14.04,6.63,21.95c0.21,6.28,0.69,12.55,0.76,18.83c0.05,3.97,1.44,6.78,4.69,9.26
		c25.35,19.31,51.13,38.02,77.06,56.53c4.66,3.33,8.92,3.79,13.72,0.74c1.96-1.25,4.08-2.29,6.23-3.19
		c10.58-4.42,21.51-5.39,32.62-2.59c4.62,1.17,7.98,0.01,10.77-3.64c1.24-1.62,2.62-3.14,3.89-4.74
		c19.51-24.44,39.1-48.82,58.49-73.35c14.05-17.77,27.8-35.77,41.79-53.58c2.66-3.39,3.47-6.56,0.99-10.34
		c-2.28-3.48-3.18-7.5-4-11.52c-0.55-2.72-1.1-5.44-1.59-8.17c-1.42-7.92-1.23-15.68,2.08-23.2c1.41-3.2,2.44-6.57,3.77-9.81
		c2.86-6.96,6.86-13.21,12.12-18.62c8.64-8.89,19.27-14.06,31.26-16.62c9.71-2.07,19.47-2.4,29.06,0.47
		c16.57,4.96,29.03,15.27,37.93,29.99c2.28,3.77,3.85,7.86,5.04,12.1c0.36,1.27,0.63,2.56,1.07,3.79c0.79,2.24,1.98,4.25,3.83,5.78
		C851.28,424.91,855.02,425.84,859.14,424.66z M397.81,533.19c0.03,4.27,1.72,8.28,4.79,11.4c7.93,8.06,20.16,7.61,27.36-1.08
		c1.29-1.55,2.39-3.33,3.26-5.15c2.76-5.76,1.91-11.1-2.44-15.74c-4.3-4.58-9.61-6.95-15.99-6.81
		C404.91,516.04,397.73,523.36,397.81,533.19z M582.32,663.71c0.08,4.28,1.31,8.62,3.04,11.71c4.28,7.64,15.07,9.96,21.79,5.61
		c4.16-2.69,7.36-6.18,9.34-10.75c1.39-3.21,1.74-6.46,0.48-9.8c-2.16-5.71-5.91-10.06-11.39-12.74c-1.52-0.74-3.36-1.16-5.06-1.16
		c-7.42,0.01-12.68,3.77-16.38,9.96C582.74,658.85,582.17,661.4,582.32,663.71z M801.44,430.87c0.13-4.11-1.17-7.61-3.82-10.53
		c-8.25-9.09-21.14-8.15-28.35,0.51c-3.74,4.5-4.59,9.68-2.5,15.16c1.99,5.21,5.52,9.2,10.35,11.99c4.26,2.46,8.56,2.49,12.88,0.09
		c3.91-2.18,6.98-5.22,9.27-9.04C800.79,436.5,801.63,433.74,801.44,430.87z M1031.66,407.08c-7.27-0.05-10.41,8.05-7.33,12.86
		c1.2,1.88,2.66,3.48,4.57,4.63c2.21,1.33,4.4,1.34,6.57-0.17c1.84-1.28,3.15-2.99,4.26-4.91
		C1042.81,414.16,1036.77,406.34,1031.66,407.08z M78.63,698.9c0.06,0.01,0.13,0.02,0.19,0.03c0,0.58-0.02,1.16,0,1.74
		c0.1,2.77,1.57,4.63,4,5.73c2.63,1.19,5.26,1.59,7.81-0.34c2.93-2.22,4.52-6.51,3.64-10.09c-0.75-3.07-3.55-5.28-7.02-5.55
		c-3.6-0.28-6.73,1.31-7.85,4.24C78.91,695.98,78.88,697.48,78.63,698.9z M158,626.04c-1.28,1.23-2.34,2.21-3.36,3.23
		c-0.72,0.72-1.43,1.45-2.07,2.23c-2.4,2.93-2.39,4.82,0.17,7.66c0.96,1.07,2.08,2.04,3.24,2.89c4.11,3,6.25,2.72,9.64-1.18
		c0.47-0.55,0.91-1.13,1.3-1.74c1.61-2.47,1.54-4.95-0.19-7.31C164.61,628.93,161.91,626.87,158,626.04z M944.14,485.89
		c2.83-0.37,4.9-1.63,6.8-3.2c0.43-0.35,0.79-0.92,0.94-1.45c0.59-2.1,1.15-4.2,0.72-6.45c-0.44-2.35-1.62-4.06-3.86-4.89
		c-1.89-0.7-3.84-1.25-5.66-1.83c-1.84,2.22-1.89,2.23-1.59,4.01c0.48,2.87,1.02,5.74,1.56,8.6
		C943.37,482.37,943.75,484.05,944.14,485.89z M261.37,653.02c0.7-4.05-0.15-8.6-2.26-11.6c-0.28-0.4-1.01-0.81-1.42-0.71
		c-0.62,0.14-1.51,0.64-1.62,1.14c-0.37,1.69-0.64,3.44-0.59,5.16C255.58,650.91,257.05,652.31,261.37,653.02z"/>
</g>
</svg>
