<?xml version="1.0" encoding="utf-8"?>
<!-- Generator: Adobe Illustrator 26.0.3, SVG Export Plug-In . SVG Version: 6.00 Build 0)  -->
<svg version="1.1" id="Layer_1" xmlns="http://www.w3.org/2000/svg" xmlns:xlink="http://www.w3.org/1999/xlink" x="0px" y="0px"
	 viewBox="0 0 1133.86 1133.86" style="enable-background:new 0 0 1133.86 1133.86;" xml:space="preserve">
<style type="text/css">
	.st0{fill:#185670;}
</style>
<g>
	<path class="st0" d="M869.89,812.53c7.64,1.12,15,2.2,22.41,3.29c0.1,0.86,0.22,1.5,0.23,2.14c0.29,12.62,0.75,25.24,0.79,37.86
		c0.03,10.09-0.03,20.22-1.56,30.23c-2.19,14.31-9.48,25.62-21.11,34.13c-9.02,6.6-19.2,10.36-30.25,11.75
		c-3.79,0.48-7.64,0.76-11.46,0.77c-43.98,0.13-87.96,0.25-131.94,0.25c-132.79,0.01-265.58-0.02-398.37-0.08
		c-9.56,0-19.06-0.77-28.32-3.39c-20.86-5.89-33.74-19.51-39.11-40.39c-1.94-7.55-2.91-15.24-2.94-23.03
		c-0.07-15.71-0.08-31.43-0.1-47.14c0-0.83,0.1-1.65,0.16-2.69c2.95-0.46,5.78-0.94,8.62-1.35c4.25-0.62,8.51-1.18,12.77-1.79
		c1.97-0.28,2.1-0.44,2.17-2.5c0.03-0.93,0.01-1.87,0.01-2.81c0-124.23,0-248.46-0.01-372.68c0-10.32,0.78-20.55,3.48-30.56
		c2.45-9.07,6.43-17.33,13.09-24.14c7.16-7.32,16.01-11.51,25.76-14.08c8.46-2.23,17.11-2.95,25.81-3.31
		c1.78-0.07,3.56-0.03,5.33-0.03c100.32,0,200.63,0,300.95,0c1.3,0,2.6,0,4.25,0c0.54-3.14,1.08-6.14,1.55-9.15
		c1.97-12.36,3.7-24.76,7.15-36.85c16.49-57.7,62.55-102.03,120.8-116.08c13.79-3.33,27.82-4.97,41.99-4.49
		c43.03,1.45,80.3,17.06,111.48,46.68c26.41,25.09,42.51,55.84,48.69,91.77c1.68,9.8,2.58,19.67,2.45,29.59
		c-0.78,59.51-31.64,109.7-78.88,138.65c-2.54,1.56-5.04,3.25-7.34,5.15c-5.25,4.32-8.14,10.02-8.5,16.77
		c-0.33,6.34-0.3,12.71-0.31,19.06c-0.01,6.17,0.19,12.34,0.2,18.51c0.05,62.96,0.08,125.91,0.1,188.87
		c0.01,19.18-0.03,38.35-0.04,57.53C869.89,810.1,869.89,811.2,869.89,812.53z M324.18,435.6c0,110.03,0,219.79,0,329.66
		c157.87,0,315.56,0,473.22,0c0.65-4.11,0.43-232.93-0.26-235.09c-3.37-0.61-6.85-1.29-10.35-1.86c-8.11-1.32-16.31-2.21-24.34-3.92
		c-29.49-6.29-55.28-19.77-77.21-40.53c-12.03-11.39-22.15-24.32-30.97-38.3c-1.13-1.79-2.45-3.61-4.08-4.92
		c-4.79-3.85-10.34-6-16.53-6.09c-11.88-0.18-23.76-0.3-35.64-0.34c-24.51-0.09-49.03-0.16-73.54-0.16
		c-61.38-0.01-122.76,0-184.15,0.06c-3.73,0-7.45,0.52-11.17,0.85C327.52,435.09,325.89,435.37,324.18,435.6z M869.2,839.35
		c-205.42,0-410.48,0-615.68,0c-0.24,1.54-0.49,2.91-0.66,4.29c-0.33,2.78-0.68,5.57-0.89,8.36c-0.69,9.15-0.99,18.3,0.89,27.37
		c2.6,12.53,9.8,21.17,21.81,25.71c1.22,0.46,2.47,0.86,3.72,1.25c8.93,2.76,18.16,3.51,27.42,3.69c8.51,0.16,17.02-0.16,25.53-0.22
		c30.78-0.2,61.56-0.41,92.34-0.56c18.06-0.09,36.12-0.11,54.18-0.09c69.05,0.07,138.11,0.16,207.16,0.25
		c28.35,0.04,56.7,0.08,85.05,0.11c10.11,0.01,20.21-0.06,30.32,0.02c10.76,0.08,21.52-0.01,32.24-1.01
		c6.62-0.62,13.15-1.75,19.3-4.47c6.65-2.94,11.35-7.77,14.09-14.51c2.09-5.16,3.29-10.57,3.54-16.09
		c0.4-8.87,0.49-17.75,0.54-26.63C870.11,844.35,869.52,841.87,869.2,839.35z M845.25,522.89c-0.77,0.08-1.23,0.09-1.67,0.18
		c-5.86,1.2-11.73,2.31-17.56,3.63c-4.42,1-4.22-0.19-4.22,5.11c0,72.6,0,145.19-0.01,217.79c0,4.86,0.07,9.74-0.21,14.59
		c-0.2,3.43-0.75,6.88-1.51,10.24c-1.71,7.62-6.65,12.09-14.19,13.83c-5.32,1.23-10.73,1.55-16.16,1.56
		c-29.57,0.05-59.15,0.07-88.72,0.06c-122.79-0.01-245.57-0.03-368.36-0.05c-0.37,0-0.75,0.03-1.12,0
		c-4.38-0.35-8.79-0.48-13.13-1.11c-9.99-1.46-15.09-6.34-17.21-16.17c-1.29-5.98-1.38-12.07-1.38-18.15
		c-0.01-102.35-0.01-204.69-0.01-307.04c0-1.5-0.03-3,0.05-4.49c0.33-5.69,0.49-11.38,1.97-16.95c1.97-7.37,6.57-11.99,13.9-13.95
		c1.17-0.31,2.37-0.55,3.56-0.77c6.01-1.14,12.09-1.14,18.17-1.14c62.05,0,124.1,0,186.14,0c37.15,0,74.31,0,111.46,0
		c1.18,0,2.36,0,4.01,0c-2.03-8.25-3.94-16.01-5.92-24.04c-1.51,0-2.8,0-4.09,0c-22.74,0-45.48,0-68.22,0
		c-79.17,0-158.35-0.01-237.52,0.02c-7.2,0-14.39,0.35-21.46,1.99c-12.7,2.94-20.7,10.6-23.77,23.34
		c-1.74,7.23-2.22,14.58-2.22,21.99c0,117.5-0.02,235,0.04,352.5c0,8.5,0.62,17,0.97,25.5c0.02,0.53,0.17,1.06,0.25,1.52
		c3.62,0.55,565.9,0.4,568.14-0.16C845.25,716.25,845.25,619.74,845.25,522.89z M928.21,419.3c0.8-1.55,1.51-2.84,2.14-4.18
		c10.26-21.77,13.12-44.69,10.38-68.4c-1.87-16.2-6.62-31.59-13.8-46.24c-22.04-44.98-66.48-76.75-119.92-80.17
		c-14.46-0.93-28.78,0.39-42.85,3.95c-76.54,19.39-115.87,92.94-107.1,156.5c1.98,14.32,6.32,27.85,13.46,40.44
		c0.49,0.86,1.02,1.69,1.74,2.88c0.59-1,1.01-1.58,1.31-2.22c6.3-13.67,16.68-22.98,30.46-28.74c9.01-3.77,18.45-6.03,27.9-8.27
		c8.82-2.09,17.65-4.12,26.15-7.33c1.19-0.45,2.35-0.96,3.86-1.59c-0.85-1.14-1.48-1.92-2.05-2.74
		c-3.97-5.78-8.15-11.42-11.83-17.38c-4.15-6.73-6.93-14.1-8.18-21.94c-2.36-14.88-1.63-29.75,1.94-44.27
		c7.38-30.01,33.94-48.99,65.52-44.57c18.6,2.6,32.66,12.26,42.21,28.37c4.8,8.08,7.32,16.92,8.15,26.29
		c0.9,10.27,1.27,20.51,0,30.79c-2.17,17.57-9.78,32.2-23.18,43.8c-0.62,0.54-1.32,1-2.35,1.79c1.33,0.47,2,0.77,2.71,0.94
		c4.82,1.14,9.65,2.21,14.46,3.37c7.81,1.88,15.66,3.61,23.39,5.76c12.24,3.4,22.98,9.83,33.19,17.21
		c6.44,4.66,12.86,9.35,19.3,14.01C926.13,417.98,927.08,418.55,928.21,419.3z M739.32,407.85c-5.61,0.95-10.89,1.67-16.06,2.82
		c-2.01,0.45-4.03,1.6-5.65,2.92c-4.06,3.3-8.01,6.76-11.8,10.37c-5.03,4.79-9.42,10.12-12.78,16.25
		c-3.56,6.5-3.19,12.79,1.15,18.68c2.09,2.84,4.5,5.53,7.11,7.9c33.8,30.63,73.39,42.73,118.53,36.55
		c20.5-2.81,39.36-10.16,56.66-21.48c6.9-4.51,13.49-9.46,19.24-15.4c14.41-14.88,11.91-36.74-5.39-48.12
		c-3.78-2.49-7.88-4.31-12.2-5.57c-6.18-1.8-12.43-3.4-18.65-5.05c-0.5-0.13-1.06-0.02-1.74-0.02
		c-6.29,20.6-12.56,41.09-18.95,62.02c-1.04-1.15-1.73-1.88-2.38-2.64c-10.2-11.95-20.5-23.82-30.52-35.92
		c-2.84-3.43-5.93-5.57-10.32-6.39c-2.49-0.47-3.82-0.07-5.35,1.96c-10.02,13.29-20.19,26.47-30.32,39.68
		c-0.59,0.77-1.22,1.52-2.16,2.67C751.55,448.44,745.5,428.35,739.32,407.85z M802.69,392.04c0.33-0.53,0.52-0.75,0.61-1
		c3.01-8.63,6.94-16.95,8.75-25.99c0.61-3.06,2.13-5.34,4.87-7.14c8.03-5.27,13.46-12.59,15.99-21.93c1.28-4.71,2-9.54,1.83-14.41
		c-0.26-7.47-0.66-14.94-1.27-22.38c-0.66-7.96-3.5-15.1-9.13-20.9c-7.18-7.4-16.06-10.8-26.28-10.44
		c-14.86,0.53-25.42,7.71-31.67,21.18c-1.75,3.77-2.34,7.85-2.84,11.94c-0.83,6.87-1.78,13.71-1.52,20.66
		c0.16,4.16,0.9,8.18,2.7,11.94c2.75,5.73,5.31,11.56,8.42,17.09c7.16,12.7,14.7,25.18,21.85,37.88c1.4,2.49,3.07,3.51,5.69,3.51
		C801.34,392.04,801.98,392.04,802.69,392.04z"/>
	<path class="st0" d="M606.49,741.61c-22.82,0-45.34,0-68.04,0c0-94.03,0-187.89,0-281.93c22.69,0,45.27,0,68.04,0
		C606.49,553.64,606.49,647.5,606.49,741.61z M562.49,482.32c0,78.76,0,157.26,0,235.72c2.8,0.76,18.46,0.68,20.67-0.08
		c0-78.49,0-156.98,0-235.65C576.26,482.32,569.56,482.32,562.49,482.32z"/>
	<path class="st0" d="M511.75,505.14c0,78.89,0,157.52,0,236.11c-2.23,0.56-64.26,0.72-68.28,0.18c-0.35-2.66-0.8-5.4-1.04-8.16
		c-0.28-3.17-0.5-6.35-0.51-9.52c-0.05-17.03-0.04-34.05-0.02-51.08c0.04-26.75,0.19-53.5,0.16-80.26
		c-0.03-22.64-0.28-45.27-0.35-67.91c-0.01-3.35,0.1-6.75,0.65-10.05c1.01-6.02,4.59-9.22,10.73-9.5c4.94-0.22,9.91,0.11,14.86,0.13
		c9.45,0.04,18.89,0.03,28.34,0.04C501.33,505.14,506.36,505.14,511.75,505.14z M488.65,717.76c0.59-3.52,0.43-185.23-0.13-187.23
		c-2.84-0.58-18.74-0.5-20.88,0.11c-0.56,3.07-0.42,184.96,0.18,187.11C474.75,717.76,481.72,717.76,488.65,717.76z"/>
	<path class="st0" d="M348.19,554.55c22.83,0,45.43,0,67.99,0c0.6,2.28,0.69,184.08,0.12,186.81c-2.39,0.61-65.59,0.6-68.11-0.05
		C348.19,679.19,348.19,617.04,348.19,554.55z M393.06,717.52c0.57-3.05,0.43-138.08-0.16-140.19c-6.76,0-13.54,0-20.29,0
		c-0.56,3.44-0.42,138.29,0.11,140.31C375.66,718.2,390.89,718.11,393.06,717.52z"/>
	<path class="st0" d="M632.96,578.09c46.79,0,93.42,0,140.25,0c0,6.72,0,13.31,0,19.92c-2.05,0.63-131.72,0.95-140.04,0.33
		C632.57,596.43,632.4,582.17,632.96,578.09z"/>
	<path class="st0" d="M633.3,646.01c-0.54-3.72-0.39-17.95,0.2-20.17c46.6,0,93.24,0,140.24,0c0.28,6.67,0.1,13.33,0.11,20.17
		C726.88,646.01,680.18,646.01,633.3,646.01z"/>
	<path class="st0" d="M773.62,721.28c0,6.64,0,13.32,0,19.98c-2.14,0.66-137.04,0.8-140.16,0.17c-0.57-2.11-0.68-16.96-0.15-20.02
		C635.32,720.79,770.22,720.63,773.62,721.28z"/>
	<path class="st0" d="M633.29,672.86c46.95,0,93.58,0,140.4,0c0,6.74,0,13.32,0,19.86c-2.21,0.62-137.49,0.7-140.4,0.08
		C633.29,686.27,633.29,679.7,633.29,672.86z"/>
	<path class="st0" d="M595.07,883.49c-22.98,0-45.77,0-68.57,0c-0.57-1.99-0.71-16.61-0.16-20.24c22.82,0,45.68,0,68.73,0
		C595.07,870,595.07,876.68,595.07,883.49z"/>
	<path class="st0" d="M642.3,883.56c-6.95,0-13.74,0-20.5,0c-0.61-2.12-0.76-17.18-0.18-21.05c6.79-0.08,13.65-0.02,20.45-0.03
		C642.91,864.57,643.08,880.25,642.3,883.56z"/>
	<path class="st0" d="M479.39,862.69c6.83,0,13.53,0,20.19,0c0.7,2.16,0.82,17.62,0.16,20.76c-6.74,0-13.51,0-20.29,0
		C478.83,881.37,478.74,865.72,479.39,862.69z"/>
</g>
</svg>
