<?xml version="1.0" encoding="utf-8"?>
<!-- Generator: Adobe Illustrator 26.0.3, SVG Export Plug-In . SVG Version: 6.00 Build 0)  -->
<svg version="1.1" id="Layer_1" xmlns="http://www.w3.org/2000/svg" xmlns:xlink="http://www.w3.org/1999/xlink" x="0px" y="0px"
	 viewBox="0 0 1133.86 1133.86" style="enable-background:new 0 0 1133.86 1133.86;" xml:space="preserve">
<style type="text/css">
	.st0{fill:#55C499;}
	.st1{fill:#185670;}
</style>
<path class="st0" d="M617.04,520.7c11.54-9.17,22.28-17.66,32.97-26.22c24.05-19.27,48.07-38.58,72.11-57.86
	c10.63-8.53,25.64-7.86,35.12,1.52c9.59,9.49,10.21,24.59,1.35,35.67c-44.08,55.07-88.2,110.1-132.28,165.16
	c-3.65,4.56-7.18,9.21-10.73,13.84c-14.76,19.28-40.09,26.07-62.14,16.65c-21.79-9.31-33.65-31.93-30.98-55.77
	c3.63-32.47,6.1-65.07,9.07-97.61c4.47-49.05,8.95-98.09,13.43-147.14c1.04-11.39,2.1-22.78,3.15-34.17
	c1.3-14.18,12.12-24.29,25.92-24.21c13.55,0.08,24.68,10.01,25.92,23.62c5.35,58.81,10.57,117.64,15.86,176.46
	C616.06,513.61,616.52,516.56,617.04,520.7z"/>
<g>
	<path class="st1" d="M158.59,571.87c0.42-0.76,1.05-1.48,1.23-2.29c4.65-21.22,22.17-34.64,42.43-32.47
		c20.52,2.2,34.88,18.61,35.06,40.33c0.37,43.43,7.67,85.65,25.03,125.5c49.92,114.62,136.26,185.15,259.84,205.2
		c181.22,29.4,350.91-92.79,383.25-273.16c25.85-144.23-46.15-290.3-176.17-357.49c-47.91-24.76-98.76-37.58-152.73-37.88
		c-22.02-0.12-38.47-13.46-41.09-33.3c-2.83-21.4,8.75-37.94,30.82-44.11c0.62-0.17,1.14-0.72,1.7-1.1c9.35,0,18.69,0,28.04,0
		c1.95,0.43,3.88,1.05,5.86,1.26c10.9,1.17,21.88,1.76,32.7,3.41c86.72,13.23,162.34,49.68,225.66,110.38
		c69.03,66.17,110.51,146.92,124.26,241.7c1.46,10.04,2.72,20.12,4.07,30.18c0,18.69,0,37.39,0,56.08
		c-1.53,11.68-2.8,23.41-4.65,35.04c-13.63,85.9-50.07,160.8-110.3,223.49C806.64,932.33,724.91,973.87,629,987.03
		c-10.98,1.51-22,2.69-33,4.02c-14.49,0-28.97,0-43.46,0c-7.09-0.86-14.18-1.81-21.29-2.56c-96.53-10.27-179.77-49.33-248.64-117.45
		c-71.45-70.67-111.91-156.64-121.51-256.89c-0.81-8.49-1.67-16.97-2.51-25.45C158.59,583.08,158.59,577.47,158.59,571.87z"/>
	<path class="st0" d="M430.38,267.88c-22.11,0.02-39.14-16.89-39.13-38.84c0.01-21.9,17.26-39.14,39.08-39.06
		c21.74,0.07,38.94,17.54,38.8,39.4C468.99,251.04,452.06,267.86,430.38,267.88z"/>
	<path class="st0" d="M227.19,471.16c-22.06,0.08-39.26-16.87-39.31-38.73c-0.05-21.78,17.35-39.23,39.05-39.14
		c21.84,0.08,39,17.4,38.92,39.27C265.76,454.23,248.89,471.08,227.19,471.16z"/>
	<path class="st0" d="M308.13,271.62c21.81-0.05,39.51,17.37,39.45,38.84c-0.06,21.54-17.94,39.26-39.4,39.06
		c-21.59-0.2-38.74-17.28-38.82-38.67C269.26,288.76,286.16,271.67,308.13,271.62z"/>
</g>
<path class="st1" d="M627.15,636.9c-1.03-26.52-2.76-41.25-4.22-57.9c-1.57-17.9-2.51-26.9-4.05-45.1
	c-1.1-14.1-3.95-11.05,7.3-20.68c30.83-24.04,68.97-55.65,99.5-80.06c10.5-8.39,25.37-7.87,34.61,1.13
	c9.19,8.95,10.09,24.08,1.75,34.51c-44.3,55.41-88.68,110.77-133.04,166.13C628.45,635.64,627.77,636.25,627.15,636.9z"/>
</svg>
