<?xml version="1.0" encoding="utf-8"?>
<!-- Generator: Adobe Illustrator 26.0.3, SVG Export Plug-In . SVG Version: 6.00 Build 0)  -->
<svg version="1.1" id="Layer_1" xmlns="http://www.w3.org/2000/svg" xmlns:xlink="http://www.w3.org/1999/xlink" x="0px" y="0px"
	 viewBox="0 0 1133.86 1133.86" style="enable-background:new 0 0 1133.86 1133.86;" xml:space="preserve">
<style type="text/css">
	.st0{fill:#185670;}
</style>
<g>
	<path class="st0" d="M776.68,262.05c1.96-1.82,3.74-3.39,5.41-5.06c15.85-15.82,31.68-31.66,47.51-47.49
		c1.36-1.36,2.66-2.8,4.12-4.05c5.39-4.62,11.48-5.96,18.16-3.32c6.81,2.7,11.06,7.72,11.88,15.05c0.7,6.21,0.9,12.48,1.19,18.74
		c1.67,35.83,3.28,71.67,4.94,107.5c0.93,20.2,1.93,40.4,2.86,60.6c0.11,2.4,0.2,4.83-0.02,7.21c-1.1,12.12-10.46,21.37-22.63,22.36
		c-2.39,0.19-4.81,0.09-7.21-0.02c-36.79-1.66-73.59-3.31-110.38-5.05c-24.05-1.13-48.08-2.41-72.12-3.62
		c-1.68-0.09-3.38-0.1-5.04-0.39c-12.71-2.22-20.71-18.15-10.98-29.64c1.24-1.47,2.66-2.78,4.02-4.14
		c16.68-16.69,33.37-33.37,50.04-50.07c1.66-1.66,3.21-3.43,5.19-5.56c-2.02-1.26-3.54-2.33-5.17-3.21
		c-22.64-12.13-46.58-20.64-71.73-25.79c-17.75-3.63-35.7-5.52-53.79-5.4c-122.08,0.83-220.23,81-253.34,186.44
		c-7.76,24.73-11.79,50.07-12.18,76.01c-0.07,4.79-0.33,9.65-1.25,14.33c-4.53,22.96-25.95,40.39-50.91,39.37
		c-23.42-0.96-43.75-18.91-47.15-42.26c-0.55-3.79-0.51-7.69-0.46-11.53c0.9-74.82,22.26-143.32,65.15-204.58
		c54.35-77.62,128.14-127.15,220.43-148.74c30.37-7.11,61.29-9.91,92.48-8.72c66.38,2.53,127.82,21.24,184.03,56.8
		C771.94,259.21,774.19,260.53,776.68,262.05z"/>
	<path class="st0" d="M443.52,798.71c1.54,1.07,2.61,1.97,3.82,2.62c25.21,13.56,51.91,22.88,80.12,27.78
		c17.36,3.02,34.85,4.49,52.47,4.01c123.22-3.4,222.83-88.2,251.54-200.22c5.04-19.65,7.84-39.64,8.08-59.97
		c0.05-4.32,0.27-8.66,0.76-12.96c2.42-21.18,20.59-41.35,46.46-42.9c23.25-1.39,45.72,13.74,51.49,38.66
		c1.07,4.63,1.29,9.56,1.26,14.34c-0.99,165.83-115.03,311.19-275.78,351.72c-34.07,8.59-68.66,12.43-103.75,11.01
		c-65.61-2.67-126.35-21.33-182-56.32c-2.42-1.52-4.85-3.04-7.57-4.75c-1.96,1.85-3.73,3.44-5.41,5.11
		c-15.67,15.65-31.33,31.32-46.99,46.98c-1.36,1.36-2.7,2.75-4.11,4.06c-5.2,4.83-11.17,6.42-17.99,4.08
		c-7-2.4-11.03-7.44-12.62-14.54c-0.26-1.16-0.27-2.39-0.33-3.59c-1.03-21.88-2.01-43.77-3.06-65.65
		c-1.2-25.01-2.48-50.01-3.69-75.02c-0.72-14.91-1.41-29.82-1.98-44.74c-0.12-3.1-0.07-6.33,0.66-9.31
		c3.01-12.25,13.75-19.23,24.2-18.97c7.94,0.2,15.88,0.46,23.82,0.84c13.46,0.64,26.92,1.45,40.39,2.08
		c25.97,1.21,51.95,2.31,77.92,3.53c15.63,0.73,31.25,1.68,46.88,2.36c5.89,0.26,10.76,2.33,14.55,6.82
		c5.78,6.84,5.81,16.36,0.06,23.17c-1.4,1.65-2.99,3.14-4.52,4.67c-16.51,16.52-33.03,33.03-49.53,49.56
		C447.02,794.86,445.46,796.63,443.52,798.71z"/>
</g>
</svg>
