<?xml version="1.0" encoding="utf-8"?>
<!-- Generator: Adobe Illustrator 26.0.3, SVG Export Plug-In . SVG Version: 6.00 Build 0)  -->
<svg version="1.1" id="Layer_1" xmlns="http://www.w3.org/2000/svg" xmlns:xlink="http://www.w3.org/1999/xlink" x="0px" y="0px"
	 viewBox="0 0 1133.86 1133.86" style="enable-background:new 0 0 1133.86 1133.86;" xml:space="preserve">
<style type="text/css">
	.st0{fill:#185670;}
</style>
<g>
	<path class="st0" d="M761.52,459.56c3.59,0,6.94-0.05,10.28,0.01c5.86,0.11,11.75-0.02,17.58,0.49
		c18.65,1.63,35.31,8.31,49.59,20.52c14.04,12,24.35,26.54,29.64,44.4c2.35,7.93,3.52,16.05,3.54,24.32c0,0.3,0,0.61,0,0.91
		c0.02,58.59,0.06,117.18,0.07,175.77c0,29.94-0.04,59.88-0.07,89.83c0,3.66-0.17,7.32-0.02,10.97c0.56,13.31-2.61,25.84-7.89,37.9
		c-10.95,25.03-29.89,41.25-55.65,49.6c-5.83,1.89-12.01,2.65-18.02,4.03c-3.07,0.7-6.15,0.86-9.28,0.86
		c-137.82-0.02-275.63-0.03-413.45,0.02c-10,0-19.69-1.6-29.18-4.56c-34.44-10.74-54.37-39.86-60.41-61.92
		c-1.96-7.16-3.06-14.43-3.06-21.87c-0.01-18.21-0.09-36.42-0.11-54.63c-0.06-51.05-0.12-102.09-0.14-153.14
		c-0.01-20.8,0.09-41.6,0.15-62.39c0.01-4.11-0.06-8.23,0.15-12.34c1.58-30.52,14.26-55.01,39.63-72.53
		c10.66-7.36,22.25-12.6,35.09-14.69c5.09-0.83,10.28-1.4,15.43-1.47c17.67-0.22,35.34-0.19,53.02-0.2
		c97.52-0.01,195.03-0.01,292.55-0.01c1.12,0,2.24,0,3.53,0c0.06-1.02,0.14-1.76,0.15-2.5c0.09-18.97,0.23-37.94,0.24-56.91
		c0-8.3-0.09-16.61-0.42-24.9c-2.46-62.83-44.27-114.4-100.6-131.35c-14.03-4.22-28.38-6.26-43.02-5.96
		c-54.36,1.12-101.79,33.49-124.2,80.74c-7.04,14.85-11.53,30.43-13.02,46.83c-0.46,5-0.62,10.05-1.32,15.01
		c-1.23,8.66-5.43,15.53-13.5,19.41c-12.19,5.86-28.93-0.4-32.45-16.74c-0.8-3.7-0.55-7.44-0.34-11.16
		c0.45-7.83,1.24-15.63,2.51-23.38c4.16-25.44,12.97-49.11,27.03-70.73c18.67-28.72,42.78-51.62,73.37-67.39
		c16-8.25,32.94-13.74,50.62-17.1c14.82-2.82,29.75-3.84,44.78-3c21.15,1.18,41.52,5.97,61.01,14.3
		c53.14,22.69,92.59,67.33,108.55,122.84c3.06,10.63,5.06,21.47,6.28,32.46c1.03,9.33,1.28,18.68,1.26,28.05
		c-0.06,23.16-0.03,46.32-0.02,69.49C761.38,458.07,761.46,458.66,761.52,459.56z M575.51,505.38c0,0.03,0,0.07,0,0.1
		c-25.52,0-51.04,0-76.56,0c-25.22,0-50.43,0.04-75.65-0.02c-14.85-0.03-29.71-0.25-44.56-0.34c-6.01-0.03-12.02-0.31-18,0.77
		c-12.79,2.3-23.22,8.44-30.92,18.97c-6.85,9.38-9.64,20.03-9.54,31.57c0.16,18.74,0.31,37.48,0.34,56.22
		c0.05,36.42,0.02,72.84,0.02,109.25c0,35.05-0.02,70.09,0.04,105.14c0,2.95,0.24,5.96,0.82,8.85
		c4.26,21.41,22.08,37.67,46.32,37.68c136.14,0.05,272.28,0.03,408.42-0.02c4.17,0,8.39-0.29,12.51-0.96
		c22.26-3.62,38.14-24.58,37.98-44.55c-0.26-32.3,0.05-64.6,0.06-96.91c0-26.44-0.1-52.87-0.14-79.31
		c-0.04-33.98-0.04-67.96-0.11-101.94c-0.01-2.73-0.17-5.51-0.76-8.16c-3.55-15.93-13.29-26.71-28.11-33.04
		c-6.62-2.83-13.69-3.5-20.81-3.5c-15.69,0.01-31.38,0.17-47.08,0.18C678.36,505.4,626.94,505.38,575.51,505.38z"/>
	<path class="st0" d="M551.23,742.69c0-6.47,0.5-12.99-0.12-19.4c-0.84-8.67-0.32-17.32-0.53-25.98c-0.08-3.19-0.01-6.4,0.17-9.59
		c0.18-3.03-0.9-5.18-3.44-6.93c-9.2-6.33-15.35-14.91-18.11-25.76c-5.94-23.36,6.6-50.14,34.83-56.51
		c24.6-5.55,48.87,10.88,54.04,33.26c4.29,18.54-0.75,36.23-17.05,48.19c-3.33,2.44-4.66,5.1-4.58,9.17
		c0.23,11.57,0.14,23.15,0.14,34.73c0,11.12-0.02,22.24-0.1,33.36c-0.01,1.82-0.24,3.65-0.57,5.44
		c-1.99,10.8-11.97,18.95-22.87,18.42c-6.62-0.32-12.41-2.93-16.99-7.83c-3.04-3.24-4.51-7.2-4.67-11.61
		c-0.23-6.32-0.36-12.63-0.53-18.95C550.97,742.7,551.1,742.69,551.23,742.69z"/>
</g>
</svg>
